<svg width="160" height="233" viewBox="0 0 160 233" fill="none" xmlns="http://www.w3.org/2000/svg">
<ellipse cx="115.385" cy="116.092" rx="94" ry="95" transform="rotate(-15 115.385 116.092)" fill="url(#paint0_linear_10_105)"/>
<g filter="url(#filter0_i_10_105)">
<path fill-rule="evenodd" clip-rule="evenodd" d="M93.6668 69.1447C96.1328 68.4839 98.6674 69.9473 99.3282 72.4133L102.016 82.4458L110.039 80.296C110.345 80.2142 110.648 80.1359 110.949 80.0609L108.258 70.0205C107.597 67.5545 109.061 65.0198 111.527 64.3591C113.993 63.6983 116.527 65.1617 117.188 67.6277L120.189 78.8277C121.455 78.8346 122.664 78.9285 123.816 79.1094C127.745 79.7266 130.964 81.1821 133.473 83.4759C135.976 85.7464 137.707 88.6724 138.667 92.2537C139.414 95.0443 139.514 97.6472 138.965 100.063C138.409 102.455 137.335 104.587 135.743 106.459C134.168 108.302 132.211 109.836 129.873 111.06L130.06 111.758C132.812 111.145 135.564 111.23 138.316 112.013C141.091 112.79 143.566 114.258 145.74 116.417C147.907 118.553 149.461 121.377 150.402 124.889C151.418 128.679 151.383 132.315 150.297 135.797C149.228 139.249 147.098 142.324 143.908 145.023C142.44 146.266 140.743 147.374 138.817 148.348L142.257 161.187C142.918 163.653 141.455 166.188 138.989 166.848C136.523 167.509 133.988 166.046 133.327 163.58L130.089 151.493L121.159 153.886L124.397 165.973C125.058 168.438 123.595 170.973 121.129 171.634C118.663 172.295 116.128 170.831 115.467 168.365L112.229 156.278L100.578 159.4L81.4356 87.9604L93.0864 84.8386L90.3982 74.806C89.7375 72.3401 91.2009 69.8054 93.6668 69.1447ZM99.9592 96.0825L99.8112 96.1222L104.55 113.808L115.747 110.807C117.817 110.253 119.558 109.4 120.969 108.249C122.398 107.069 123.396 105.68 123.965 104.082C124.557 102.477 124.601 100.733 124.096 98.8498C123.404 96.2684 121.928 94.4332 119.667 93.3441C117.43 92.2488 114.636 92.1498 111.288 93.0471L101.686 95.6197C101.422 95.7494 101.141 95.8554 100.845 95.9346C100.55 96.0138 100.253 96.0624 99.9592 96.0825ZM124.687 139.705L112.373 143.005L107.289 124.028L119.951 120.636C122.37 119.987 124.566 119.86 126.541 120.253C128.539 120.64 130.217 121.461 131.576 122.718C132.934 123.974 133.878 125.59 134.408 127.567C135.131 130.264 134.745 132.686 133.251 134.831C131.751 136.953 128.896 138.577 124.687 139.705Z" fill="#A85B01"/>
</g>
<defs>
<filter id="filter0_i_10_105" x="67.9802" y="49.7366" width="94.2825" height="146.652" filterUnits="userSpaceOnUse" color-interpolation-filters="sRGB">
<feFlood flood-opacity="0" result="BackgroundImageFix"/>
<feBlend mode="normal" in="SourceGraphic" in2="BackgroundImageFix" result="shape"/>
<feColorMatrix in="SourceAlpha" type="matrix" values="0 0 0 0 0 0 0 0 0 0 0 0 0 0 0 0 0 0 127 0" result="hardAlpha"/>
<feOffset dy="13.8"/>
<feGaussianBlur stdDeviation="6.9"/>
<feComposite in2="hardAlpha" operator="arithmetic" k2="-1" k3="1"/>
<feColorMatrix type="matrix" values="0 0 0 0 0 0 0 0 0 0 0 0 0 0 0 0 0 0 0.25 0"/>
<feBlend mode="normal" in2="shape" result="effect1_innerShadow_10_105"/>
</filter>
<linearGradient id="paint0_linear_10_105" x1="21.3848" y1="116.092" x2="209.385" y2="116.092" gradientUnits="userSpaceOnUse">
<stop stop-color="#FFB800"/>
<stop offset="1" stop-color="#FF8A00"/>
</linearGradient>
</defs>
</svg>
