<svg width="274" height="48" viewBox="0 0 274 48" fill="none" xmlns="http://www.w3.org/2000/svg">
<rect x="5.79083" y="6.16309" width="35.619" height="35.619" fill="#FFB800"/>
<path fill-rule="evenodd" clip-rule="evenodd" d="M21.6348 11.7971C22.2392 11.7971 22.7291 12.2871 22.7291 12.8914V15.1507H24.6954C24.7703 15.1507 24.8444 15.1514 24.9177 15.1527V12.8914C24.9177 12.2871 25.4077 11.7971 26.012 11.7971C26.6164 11.7971 27.1063 12.2871 27.1063 12.8914V15.4369C27.3954 15.516 27.6661 15.6116 27.9185 15.7235C28.7791 16.1054 29.426 16.6354 29.8591 17.3137C30.2923 17.9862 30.5089 18.7613 30.5089 19.639C30.5089 20.323 30.3721 20.9243 30.0985 21.4429C29.8249 21.9559 29.4488 22.3776 28.97 22.7082C28.497 23.0331 27.9555 23.2639 27.3457 23.4007V23.5717C28.0125 23.6002 28.6366 23.7882 29.2179 24.1359C29.805 24.4836 30.2809 24.9709 30.6456 25.5978C31.0104 26.219 31.1928 26.96 31.1928 27.8206C31.1928 28.7496 30.962 29.5789 30.5003 30.3084C30.0444 31.0322 29.369 31.605 28.4742 32.0268C28.0623 32.2209 27.6063 32.3704 27.1063 32.4751V35.184C27.1063 35.7883 26.6164 36.2783 26.012 36.2783C25.4076 36.2783 24.9177 35.7883 24.9177 35.184V32.6594H22.7291V35.184C22.7291 35.7883 22.2392 36.2783 21.6348 36.2783C21.0305 36.2783 20.5405 35.7883 20.5405 35.184V32.6594H17.6851V15.1507H20.5406V12.8914C20.5406 12.2871 21.0305 11.7971 21.6348 11.7971ZM21.3869 18.3347V22.4774H24.1312C24.6384 22.4774 25.0887 22.389 25.482 22.2123C25.8809 22.03 26.1944 21.7735 26.4224 21.4429C26.656 21.1123 26.7729 20.7162 26.7729 20.2546C26.7729 19.6219 26.5477 19.1118 26.0975 18.7243C25.6529 18.3367 25.0203 18.1429 24.1996 18.1429H22.293C22.1098 18.281 21.8819 18.3629 21.6348 18.3629C21.5496 18.3629 21.4666 18.3531 21.3869 18.3347ZM24.4048 29.633H21.3869V24.9823H24.4902C25.083 24.9823 25.5931 25.0877 26.0205 25.2986C26.4537 25.5095 26.7871 25.8001 27.0208 26.1706C27.2545 26.5411 27.3713 26.9685 27.3713 27.453C27.3713 28.1141 27.1348 28.6442 26.6617 29.0431C26.1887 29.4364 25.4364 29.633 24.4048 29.633Z" fill="#1E1E1E"/>
<path fill-rule="evenodd" clip-rule="evenodd" d="M31.9588 36.3705L24.2559 42.0006L31.9588 47.6306L31.9588 36.3705ZM38.1321 44.0219L38.2345 44.0219C38.9691 44.0221 39.7031 44.0223 40.3123 43.9403C41.0065 43.847 41.8247 43.6162 42.507 42.9338C43.1893 42.2515 43.4202 41.4333 43.5135 40.7391C43.5954 40.1299 43.5953 39.3958 43.5951 38.6612L43.5951 38.5589L43.5951 17.7447L39.6617 17.7447L39.6617 38.5589C39.6617 39.3036 39.6587 39.749 39.6321 40.0589C39.3222 40.0855 38.8768 40.0885 38.1321 40.0885L38.1162 40.0885L38.1002 40.0885L38.0843 40.0885L38.0684 40.0885L38.0524 40.0885L38.0365 40.0885L38.0206 40.0885L38.0046 40.0885L37.9887 40.0885L37.9727 40.0885L37.9568 40.0885L37.9408 40.0885L37.9249 40.0885L37.9089 40.0885L37.893 40.0885L37.877 40.0885L37.8611 40.0885L37.8451 40.0885L37.8291 40.0885L37.8132 40.0885L37.7972 40.0885L37.7813 40.0885L37.7653 40.0885L37.7494 40.0885L37.7334 40.0885L37.7174 40.0885L37.7015 40.0885L37.6855 40.0885L37.6696 40.0885L37.6536 40.0885L37.6377 40.0885L37.6217 40.0885L37.6057 40.0885L37.5898 40.0885L37.5738 40.0885L37.5579 40.0885L37.5419 40.0885L37.526 40.0885L37.51 40.0885L37.4941 40.0885L37.4781 40.0885L37.4622 40.0885L37.4463 40.0885L37.4303 40.0885L37.4144 40.0885L37.3985 40.0885L37.3825 40.0885L37.3666 40.0885L37.3507 40.0885L37.3347 40.0885L37.3188 40.0885L37.3029 40.0885L37.287 40.0885L37.2711 40.0885L37.2551 40.0885L37.2392 40.0885L37.2233 40.0885L37.2074 40.0885L37.1915 40.0885L37.1756 40.0885L37.1597 40.0885L37.1439 40.0885L37.128 40.0885L37.1121 40.0885L37.0962 40.0885L37.0803 40.0885L37.0645 40.0885L37.0486 40.0885L37.0328 40.0885L37.0169 40.0885L37.0011 40.0885L36.9852 40.0885L36.9694 40.0885L36.9535 40.0885L36.9377 40.0885L36.9219 40.0885L36.9061 40.0885L36.8902 40.0885L36.8744 40.0885L36.8586 40.0885L36.8428 40.0885L36.8271 40.0885L36.8113 40.0885L36.7955 40.0885L36.7797 40.0885L36.764 40.0885L36.7482 40.0885L36.7324 40.0885L36.7167 40.0885L36.701 40.0885L36.6852 40.0885L36.6695 40.0885L36.6538 40.0885L36.6381 40.0885L36.6224 40.0885L36.6067 40.0885L36.591 40.0885L36.5753 40.0885L36.5596 40.0885L36.5439 40.0885L36.5283 40.0885L36.5126 40.0885L36.497 40.0885L36.4813 40.0885L36.4657 40.0885L36.4501 40.0885L36.4345 40.0885L36.4189 40.0885L36.4033 40.0885L36.3877 40.0885L36.3721 40.0885L36.3566 40.0885L36.341 40.0885L36.3255 40.0885L36.3099 40.0885L36.2944 40.0885L36.2789 40.0885L36.2634 40.0885L36.2479 40.0885L36.2324 40.0885L36.2169 40.0885L36.2014 40.0885L36.1859 40.0885L36.1705 40.0885L36.1551 40.0885L36.1396 40.0885L36.1242 40.0885L36.1088 40.0885L36.0934 40.0885L36.078 40.0885L36.0626 40.0885L36.0473 40.0885L36.0319 40.0885L36.0166 40.0885L36.0012 40.0885L35.9859 40.0885L35.9706 40.0885L35.9553 40.0885L35.94 40.0885L35.9247 40.0885L35.9095 40.0885L35.8942 40.0885L35.879 40.0885L35.8638 40.0885L35.8485 40.0885L35.8333 40.0885L35.8182 40.0885L35.803 40.0885L35.7878 40.0885L35.7727 40.0885L35.7575 40.0885L35.7424 40.0885L35.7273 40.0885L35.7122 40.0885L35.6971 40.0885L35.682 40.0885L35.667 40.0885L35.6519 40.0885L35.6369 40.0885L35.6219 40.0885L35.6069 40.0885L35.5919 40.0885L35.5769 40.0885L35.562 40.0885L35.547 40.0885L35.5321 40.0885L35.5172 40.0885L35.5023 40.0885L35.4874 40.0885L35.4725 40.0885L35.4577 40.0885L35.4428 40.0885L35.428 40.0885L35.4132 40.0885L35.3984 40.0885L35.3836 40.0885L35.3688 40.0885L35.3541 40.0885L35.3394 40.0885L35.3246 40.0885L35.3099 40.0885L35.2953 40.0885L35.2806 40.0885L35.2659 40.0885L35.2513 40.0885L35.2367 40.0885L35.2221 40.0885L35.2075 40.0885L35.1929 40.0885L35.1784 40.0885L35.1638 40.0885L35.1493 40.0885L35.1348 40.0885L35.1203 40.0885L35.1059 40.0885L35.0914 40.0885L35.077 40.0885L35.0626 40.0885L35.0482 40.0885L35.0338 40.0885L35.0195 40.0885L35.0051 40.0885L34.9908 40.0885L34.9765 40.0885L34.9622 40.0885L34.948 40.0885L34.9337 40.0885L34.9195 40.0885L34.9053 40.0885L34.8911 40.0885L34.8769 40.0885L34.8628 40.0885L34.8486 40.0885L34.8345 40.0885L34.8204 40.0885L34.8064 40.0885L34.7923 40.0885L34.7783 40.0885L34.7643 40.0885L34.7503 40.0885L34.7363 40.0885L34.7223 40.0885L34.7084 40.0885L34.6945 40.0885L34.6806 40.0885L34.6667 40.0885L34.6529 40.0885L34.6391 40.0885L34.6253 40.0885L34.6115 40.0885L34.5977 40.0885L34.584 40.0885L34.5702 40.0885L34.5565 40.0885L34.5429 40.0885L34.5292 40.0885L34.5156 40.0885L34.502 40.0885L34.4884 40.0885L34.4748 40.0885L34.4613 40.0885L34.4477 40.0885L34.4342 40.0885L34.4208 40.0885L34.4073 40.0885L34.3939 40.0885L34.3805 40.0885L34.3671 40.0885L34.3537 40.0885L34.3404 40.0885L34.327 40.0885L34.3138 40.0885L34.3005 40.0885L34.2872 40.0885L34.274 40.0885L34.2608 40.0885L34.2476 40.0885L34.2345 40.0885L34.2214 40.0885L34.2083 40.0885L34.1952 40.0885L34.1821 40.0885L34.1691 40.0885L34.1561 40.0885L34.1431 40.0885L34.1302 40.0885L34.1172 40.0885L34.1043 40.0885L34.0914 40.0885L34.0786 40.0885L34.0658 40.0885L34.053 40.0885L34.0402 40.0885L34.0274 40.0885L34.0147 40.0885L34.002 40.0885L33.9893 40.0885L33.9767 40.0885L33.964 40.0885L33.9515 40.0885L33.9389 40.0885L33.9263 40.0885L33.9138 40.0885L33.9013 40.0885L33.8889 40.0885L33.8764 40.0885L33.864 40.0885L33.8516 40.0885L33.8393 40.0885L33.827 40.0885L33.8147 40.0885L33.8024 40.0885L33.7901 40.0885L33.7779 40.0885L33.7657 40.0885L33.7536 40.0885L33.7414 40.0885L33.7293 40.0885L33.7173 40.0885L33.7052 40.0885L33.6932 40.0885L33.6812 40.0885L33.6692 40.0885L33.6573 40.0885L33.6454 40.0885L33.6335 40.0885L33.6217 40.0885L33.6099 40.0885L33.5981 40.0885L33.5863 40.0885L33.5746 40.0885L33.5629 40.0885L33.5512 40.0885L33.5396 40.0885L33.528 40.0885L33.5164 40.0885L33.5049 40.0885L33.4933 40.0885L33.4818 40.0885L33.4704 40.0885L33.459 40.0885L33.4476 40.0885L33.4362 40.0885L33.4249 40.0885L33.4136 40.0885L33.4023 40.0885L33.391 40.0885L33.3798 40.0885L33.3686 40.0885L33.3575 40.0885L33.3464 40.0885L33.3353 40.0885L33.3242 40.0885L33.3132 40.0885L33.3022 40.0885L33.2913 40.0885L33.2804 40.0885L33.2695 40.0885L33.2586 40.0885L33.2478 40.0885L33.237 40.0885L33.2262 40.0885L33.2155 40.0885L33.2048 40.0885L33.1941 40.0885L33.1835 40.0885L33.1729 40.0885L33.1623 40.0885L33.1518 40.0885L33.1413 40.0885L33.1309 40.0885L33.1204 40.0885L33.11 40.0885L33.0997 40.0885L33.0893 40.0885L33.079 40.0885L33.0688 40.0885L33.0586 40.0885L33.0484 40.0885L33.0382 40.0885L33.0281 40.0885L33.018 40.0885L33.008 40.0885L32.9979 40.0885L32.988 40.0885L32.978 40.0885L32.9681 40.0885L32.9582 40.0885L32.9484 40.0885L32.9386 40.0885L32.9288 40.0885L32.9191 40.0885L32.9094 40.0885L32.8997 40.0885L32.8901 40.0885L32.8805 40.0885L32.871 40.0885L32.8615 40.0885L32.852 40.0885L32.8425 40.0885L32.8331 40.0885L32.8238 40.0885L32.8144 40.0885L32.8052 40.0885L32.7959 40.0885L32.7867 40.0885L32.7775 40.0885L32.7684 40.0885L32.7592 40.0885L32.7502 40.0885L32.7411 40.0885L32.7322 40.0885L32.7232 40.0885L32.7143 40.0885L32.7054 40.0885L32.6966 40.0885L32.6878 40.0885L32.679 40.0885L32.6703 40.0885L32.6616 40.0885L32.6529 40.0885L32.6443 40.0885L32.6358 40.0885L32.6272 40.0885L32.6187 40.0885L32.6103 40.0885L32.6019 40.0885L32.5935 40.0885L32.5852 40.0885L32.5769 40.0885L32.5686 40.0885L32.5604 40.0885L32.5522 40.0885L32.5441 40.0885L32.536 40.0885L32.528 40.0885L32.52 40.0885L32.512 40.0885L32.504 40.0885L32.4962 40.0885L32.4883 40.0885L32.4805 40.0885L32.4727 40.0885L32.465 40.0885L32.4573 40.0885L32.4497 40.0885L32.4421 40.0885L32.4345 40.0885L32.427 40.0885L32.4195 40.0885L32.4121 40.0885L32.4047 40.0885L32.3974 40.0885L32.3901 40.0885L32.3828 40.0885L32.3756 40.0885L32.3684 40.0885L32.3612 40.0885L32.3542 40.0885L32.3471 40.0885L32.3401 40.0885L32.3331 40.0885L32.3262 40.0885L32.3193 40.0885L32.3125 40.0885L32.3057 40.0885L32.2989 40.0885L32.2922 40.0885L32.2856 40.0885L32.279 40.0885L32.2724 40.0885L32.2659 40.0885L32.2594 40.0885L32.2529 40.0885L32.2465 40.0885L32.2402 40.0885L32.2339 40.0885L32.2276 40.0885L32.2214 40.0885L32.2152 40.0885L32.2091 40.0885L32.203 40.0885L32.197 40.0885L32.191 40.0885L32.185 40.0885L32.1791 40.0885L32.1733 40.0885L32.1675 40.0885L32.1617 40.0885L32.156 40.0885L32.1503 40.0885L32.1447 40.0885L32.1391 40.0885L32.1336 40.0885L32.1281 40.0885L32.1227 40.0885L32.1173 40.0885L32.1119 40.0885L32.1066 40.0885L32.1014 40.0885L32.0962 40.0885L32.091 40.0885L32.0859 40.0885L32.0809 40.0885L32.0758 40.0885L32.0709 40.0885L32.066 40.0885L32.0611 40.0885L32.0563 40.0885L32.0515 40.0885L32.0468 40.0885L32.0421 40.0885L32.0374 40.0885L32.0329 40.0885L32.0283 40.0885L32.0238 40.0885L32.0194 40.0885L32.015 40.0885L32.0107 40.0885L32.0064 40.0885L32.0021 40.0885L31.998 40.0885L31.9938 40.0885L31.9897 40.0885L31.9857 40.0885L31.9817 40.0885L31.9777 40.0885L31.9739 40.0885L31.97 40.0885L31.9662 40.0885L31.9625 40.0885L31.9588 40.0885L31.9588 44.0219L31.9625 44.0219L31.9662 44.0219L31.97 44.0219L31.9739 44.0219L31.9777 44.0219L31.9817 44.0219L31.9857 44.0219L31.9897 44.0219L31.9938 44.0219L31.998 44.0219L32.0021 44.0219L32.0064 44.0219L32.0107 44.0219L32.015 44.0219L32.0194 44.0219L32.0238 44.0219L32.0283 44.0219L32.0329 44.0219L32.0374 44.0219L32.0421 44.0219L32.0468 44.0219L32.0515 44.0219L32.0563 44.0219L32.0611 44.0219L32.0659 44.0219L32.0709 44.0219L32.0758 44.0219L32.0809 44.0219L32.0859 44.0219L32.091 44.0219L32.0962 44.0219L32.1014 44.0219L32.1066 44.0219L32.1119 44.0219L32.1173 44.0219L32.1227 44.0219L32.1281 44.0219L32.1336 44.0219L32.1391 44.0219L32.1447 44.0219L32.1503 44.0219L32.156 44.0219L32.1617 44.0219L32.1675 44.0219L32.1733 44.0219L32.1791 44.0219L32.185 44.0219L32.191 44.0219L32.197 44.0219L32.203 44.0219L32.2091 44.0219L32.2152 44.0219L32.2214 44.0219L32.2276 44.0219L32.2339 44.0219L32.2402 44.0219L32.2465 44.0219L32.2529 44.0219L32.2594 44.0219L32.2659 44.0219L32.2724 44.0219L32.279 44.0219L32.2856 44.0219L32.2922 44.0219L32.2989 44.0219L32.3057 44.0219L32.3125 44.0219L32.3193 44.0219L32.3262 44.0219L32.3331 44.0219L32.3401 44.0219L32.3471 44.0219L32.3542 44.0219L32.3612 44.0219L32.3684 44.0219L32.3756 44.0219L32.3828 44.0219L32.3901 44.0219L32.3974 44.0219L32.4047 44.0219L32.4121 44.0219L32.4195 44.0219L32.427 44.0219L32.4345 44.0219L32.4421 44.0219L32.4497 44.0219L32.4573 44.0219L32.465 44.0219L32.4727 44.0219L32.4805 44.0219L32.4883 44.0219L32.4962 44.0219L32.504 44.0219L32.512 44.0219L32.52 44.0219L32.528 44.0219L32.536 44.0219L32.5441 44.0219L32.5522 44.0219L32.5604 44.0219L32.5686 44.0219L32.5769 44.0219L32.5852 44.0219L32.5935 44.0219L32.6019 44.0219L32.6103 44.0219L32.6187 44.0219L32.6272 44.0219L32.6358 44.0219L32.6443 44.0219L32.6529 44.0219L32.6616 44.0219L32.6703 44.0219L32.679 44.0219L32.6878 44.0219L32.6966 44.0219L32.7054 44.0219L32.7143 44.0219L32.7232 44.0219L32.7322 44.0219L32.7411 44.0219L32.7502 44.0219L32.7592 44.0219L32.7683 44.0219L32.7775 44.0219L32.7867 44.0219L32.7959 44.0219L32.8052 44.0219L32.8144 44.0219L32.8238 44.0219L32.8331 44.0219L32.8425 44.0219L32.852 44.0219L32.8615 44.0219L32.871 44.0219L32.8805 44.0219L32.8901 44.0219L32.8997 44.0219L32.9094 44.0219L32.9191 44.0219L32.9288 44.0219L32.9386 44.0219L32.9484 44.0219L32.9582 44.0219L32.9681 44.0219L32.978 44.0219L32.988 44.0219L32.9979 44.0219L33.008 44.0219L33.018 44.0219L33.0281 44.0219L33.0382 44.0219L33.0484 44.0219L33.0586 44.0219L33.0688 44.0219L33.079 44.0219L33.0893 44.0219L33.0997 44.0219L33.11 44.0219L33.1204 44.0219L33.1309 44.0219L33.1413 44.0219L33.1518 44.0219L33.1623 44.0219L33.1729 44.0219L33.1835 44.0219L33.1941 44.0219L33.2048 44.0219L33.2155 44.0219L33.2262 44.0219L33.237 44.0219L33.2478 44.0219L33.2586 44.0219L33.2695 44.0219L33.2804 44.0219L33.2913 44.0219L33.3022 44.0219L33.3132 44.0219L33.3242 44.0219L33.3353 44.0219L33.3464 44.0219L33.3575 44.0219L33.3686 44.0219L33.3798 44.0219L33.391 44.0219L33.4023 44.0219L33.4136 44.0219L33.4249 44.0219L33.4362 44.0219L33.4476 44.0219L33.459 44.0219L33.4704 44.0219L33.4818 44.0219L33.4933 44.0219L33.5048 44.0219L33.5164 44.0219L33.528 44.0219L33.5396 44.0219L33.5512 44.0219L33.5629 44.0219L33.5746 44.0219L33.5863 44.0219L33.5981 44.0219L33.6099 44.0219L33.6217 44.0219L33.6335 44.0219L33.6454 44.0219L33.6573 44.0219L33.6692 44.0219L33.6812 44.0219L33.6932 44.0219L33.7052 44.0219L33.7173 44.0219L33.7293 44.0219L33.7414 44.0219L33.7536 44.0219L33.7657 44.0219L33.7779 44.0219L33.7901 44.0219L33.8024 44.0219L33.8147 44.0219L33.827 44.0219L33.8393 44.0219L33.8516 44.0219L33.864 44.0219L33.8764 44.0219L33.8889 44.0219L33.9013 44.0219L33.9138 44.0219L33.9263 44.0219L33.9389 44.0219L33.9515 44.0219L33.964 44.0219L33.9767 44.0219L33.9893 44.0219L34.002 44.0219L34.0147 44.0219L34.0274 44.0219L34.0402 44.0219L34.053 44.0219L34.0658 44.0219L34.0786 44.0219L34.0914 44.0219L34.1043 44.0219L34.1172 44.0219L34.1302 44.0219L34.1431 44.0219L34.1561 44.0219L34.1691 44.0219L34.1821 44.0219L34.1952 44.0219L34.2083 44.0219L34.2214 44.0219L34.2345 44.0219L34.2476 44.0219L34.2608 44.0219L34.274 44.0219L34.2872 44.0219L34.3005 44.0219L34.3138 44.0219L34.327 44.0219L34.3404 44.0219L34.3537 44.0219L34.3671 44.0219L34.3805 44.0219L34.3939 44.0219L34.4073 44.0219L34.4208 44.0219L34.4342 44.0219L34.4477 44.0219L34.4613 44.0219L34.4748 44.0219L34.4884 44.0219L34.502 44.0219L34.5156 44.0219L34.5292 44.0219L34.5429 44.0219L34.5565 44.0219L34.5702 44.0219L34.584 44.0219L34.5977 44.0219L34.6115 44.0219L34.6253 44.0219L34.6391 44.0219L34.6529 44.0219L34.6667 44.0219L34.6806 44.0219L34.6945 44.0219L34.7084 44.0219L34.7223 44.0219L34.7363 44.0219L34.7503 44.0219L34.7643 44.0219L34.7783 44.0219L34.7923 44.0219L34.8064 44.0219L34.8204 44.0219L34.8345 44.0219L34.8486 44.0219L34.8628 44.0219L34.8769 44.0219L34.8911 44.0219L34.9053 44.0219L34.9195 44.0219L34.9337 44.0219L34.948 44.0219L34.9622 44.0219L34.9765 44.0219L34.9908 44.0219L35.0051 44.0219L35.0195 44.0219L35.0338 44.0219L35.0482 44.0219L35.0626 44.0219L35.077 44.0219L35.0914 44.0219L35.1059 44.0219L35.1203 44.0219L35.1348 44.0219L35.1493 44.0219L35.1638 44.0219L35.1784 44.0219L35.1929 44.0219L35.2075 44.0219L35.2221 44.0219L35.2367 44.0219L35.2513 44.0219L35.2659 44.0219L35.2806 44.0219L35.2953 44.0219L35.3099 44.0219L35.3246 44.0219L35.3394 44.0219L35.3541 44.0219L35.3688 44.0219L35.3836 44.0219L35.3984 44.0219L35.4132 44.0219L35.428 44.0219L35.4428 44.0219L35.4577 44.0219L35.4725 44.0219L35.4874 44.0219L35.5023 44.0219L35.5172 44.0219L35.5321 44.0219L35.547 44.0219L35.562 44.0219L35.5769 44.0219L35.5919 44.0219L35.6069 44.0219L35.6219 44.0219L35.6369 44.0219L35.6519 44.0219L35.667 44.0219L35.682 44.0219L35.6971 44.0219L35.7122 44.0219L35.7273 44.0219L35.7424 44.0219L35.7575 44.0219L35.7727 44.0219L35.7878 44.0219L35.803 44.0219L35.8182 44.0219L35.8333 44.0219L35.8485 44.0219L35.8638 44.0219L35.879 44.0219L35.8942 44.0219L35.9095 44.0219L35.9247 44.0219L35.94 44.0219L35.9553 44.0219L35.9706 44.0219L35.9859 44.0219L36.0012 44.0219L36.0166 44.0219L36.0319 44.0219L36.0473 44.0219L36.0626 44.0219L36.078 44.0219L36.0934 44.0219L36.1088 44.0219L36.1242 44.0219L36.1396 44.0219L36.1551 44.0219L36.1705 44.0219L36.1859 44.0219L36.2014 44.0219L36.2169 44.0219L36.2324 44.0219L36.2479 44.0219L36.2634 44.0219L36.2789 44.0219L36.2944 44.0219L36.3099 44.0219L36.3255 44.0219L36.341 44.0219L36.3566 44.0219L36.3721 44.0219L36.3877 44.0219L36.4033 44.0219L36.4189 44.0219L36.4345 44.0219L36.4501 44.0219L36.4657 44.0219L36.4813 44.0219L36.497 44.0219L36.5126 44.0219L36.5283 44.0219L36.5439 44.0219L36.5596 44.0219L36.5753 44.0219L36.591 44.0219L36.6067 44.0219L36.6224 44.0219L36.6381 44.0219L36.6538 44.0219L36.6695 44.0219L36.6852 44.0219L36.701 44.0219L36.7167 44.0219L36.7324 44.0219L36.7482 44.0219L36.764 44.0219L36.7797 44.0219L36.7955 44.0219L36.8113 44.0219L36.8271 44.0219L36.8428 44.0219L36.8586 44.0219L36.8744 44.0219L36.8902 44.0219L36.9061 44.0219L36.9219 44.0219L36.9377 44.0219L36.9535 44.0219L36.9694 44.0219L36.9852 44.0219L37.0011 44.0219L37.0169 44.0219L37.0328 44.0219L37.0486 44.0219L37.0645 44.0219L37.0803 44.0219L37.0962 44.0219L37.1121 44.0219L37.128 44.0219L37.1439 44.0219L37.1597 44.0219L37.1756 44.0219L37.1915 44.0219L37.2074 44.0219L37.2233 44.0219L37.2392 44.0219L37.2551 44.0219L37.2711 44.0219L37.287 44.0219L37.3029 44.0219L37.3188 44.0219L37.3347 44.0219L37.3507 44.0219L37.3666 44.0219L37.3825 44.0219L37.3985 44.0219L37.4144 44.0219L37.4303 44.0219L37.4463 44.0219L37.4622 44.0219L37.4781 44.0219L37.4941 44.0219L37.51 44.0219L37.526 44.0219L37.5419 44.0219L37.5579 44.0219L37.5738 44.0219L37.5898 44.0219L37.6057 44.0219L37.6217 44.0219L37.6377 44.0219L37.6536 44.0219L37.6696 44.0219L37.6855 44.0219L37.7015 44.0219L37.7174 44.0219L37.7334 44.0219L37.7494 44.0219L37.7653 44.0219L37.7813 44.0219L37.7972 44.0219L37.8132 44.0219L37.8291 44.0219L37.8451 44.0219L37.8611 44.0219L37.877 44.0219L37.893 44.0219L37.9089 44.0219L37.9249 44.0219L37.9408 44.0219L37.9568 44.0219L37.9727 44.0219L37.9887 44.0219L38.0046 44.0219L38.0206 44.0219L38.0365 44.0219L38.0524 44.0219L38.0684 44.0219L38.0843 44.0219L38.1002 44.0219L38.1162 44.0219L38.1321 44.0219Z" fill="#1E1E1E"/>
<path fill-rule="evenodd" clip-rule="evenodd" d="M11.2601 32.3308L5.63005 24.6279L-5.08648e-07 32.3308L11.2601 32.3308ZM3.60873 38.5043L3.60872 38.6067C3.60854 39.3412 3.60836 40.0753 3.69027 40.6845C3.7836 41.3787 4.01447 42.1969 4.69679 42.8792C5.37912 43.5615 6.19736 43.7924 6.89149 43.8857C7.50075 43.9676 8.23479 43.9674 8.96938 43.9673L9.07177 43.9673L29.886 43.9673L29.886 40.0339L9.07177 40.0339C8.32698 40.0339 7.88166 40.0309 7.5717 40.0043C7.54512 39.6943 7.54212 39.249 7.54212 38.5043L7.54212 38.4884L7.54212 38.4724L7.54212 38.4565L7.54212 38.4406L7.54212 38.4246L7.54212 38.4087L7.54212 38.3927L7.54212 38.3768L7.54212 38.3609L7.54212 38.3449L7.54212 38.329L7.54212 38.313L7.54212 38.2971L7.54212 38.2811L7.54212 38.2652L7.54212 38.2492L7.54212 38.2333L7.54212 38.2173L7.54212 38.2013L7.54212 38.1854L7.54212 38.1694L7.54212 38.1535L7.54212 38.1375L7.54212 38.1216L7.54212 38.1056L7.54212 38.0896L7.54212 38.0737L7.54212 38.0577L7.54212 38.0418L7.54212 38.0258L7.54212 38.0098L7.54212 37.9939L7.54212 37.9779L7.54212 37.962L7.54212 37.946L7.54212 37.9301L7.54212 37.9141L7.54212 37.8982L7.54212 37.8822L7.54212 37.8663L7.54212 37.8503L7.54212 37.8344L7.54212 37.8185L7.54212 37.8025L7.54212 37.7866L7.54212 37.7706L7.54212 37.7547L7.54212 37.7388L7.54212 37.7228L7.54212 37.7069L7.54212 37.691L7.54212 37.6751L7.54212 37.6592L7.54212 37.6432L7.54212 37.6273L7.54212 37.6114L7.54212 37.5955L7.54212 37.5796L7.54212 37.5637L7.54212 37.5478L7.54212 37.5319L7.54212 37.516L7.54212 37.5002L7.54212 37.4843L7.54212 37.4684L7.54212 37.4525L7.54212 37.4367L7.54212 37.4208L7.54212 37.4049L7.54212 37.3891L7.54212 37.3732L7.54212 37.3574L7.54212 37.3416L7.54212 37.3257L7.54212 37.3099L7.54212 37.2941L7.54212 37.2783L7.54212 37.2624L7.54212 37.2466L7.54212 37.2308L7.54212 37.215L7.54212 37.1992L7.54212 37.1835L7.54212 37.1677L7.54212 37.1519L7.54212 37.1361L7.54212 37.1204L7.54212 37.1046L7.54212 37.0889L7.54212 37.0731L7.54212 37.0574L7.54212 37.0417L7.54212 37.026L7.54212 37.0103L7.54212 36.9945L7.54212 36.9788L7.54212 36.9632L7.54212 36.9475L7.54212 36.9318L7.54212 36.9161L7.54212 36.9005L7.54212 36.8848L7.54212 36.8692L7.54212 36.8535L7.54212 36.8379L7.54212 36.8223L7.54212 36.8067L7.54212 36.7911L7.54212 36.7755L7.54212 36.7599L7.54212 36.7443L7.54212 36.7288L7.54212 36.7132L7.54212 36.6977L7.54212 36.6821L7.54212 36.6666L7.54212 36.6511L7.54212 36.6355L7.54212 36.62L7.54212 36.6046L7.54212 36.5891L7.54212 36.5736L7.54212 36.5581L7.54212 36.5427L7.54212 36.5272L7.54212 36.5118L7.54212 36.4964L7.54212 36.481L7.54212 36.4656L7.54212 36.4502L7.54212 36.4348L7.54212 36.4195L7.54212 36.4041L7.54212 36.3888L7.54212 36.3734L7.54212 36.3581L7.54212 36.3428L7.54212 36.3275L7.54212 36.3122L7.54212 36.2969L7.54212 36.2817L7.54212 36.2664L7.54212 36.2512L7.54212 36.2359L7.54212 36.2207L7.54212 36.2055L7.54212 36.1903L7.54212 36.1752L7.54212 36.16L7.54212 36.1449L7.54212 36.1297L7.54212 36.1146L7.54212 36.0995L7.54212 36.0844L7.54212 36.0693L7.54212 36.0542L7.54212 36.0392L7.54212 36.0241L7.54212 36.0091L7.54212 35.9941L7.54212 35.9791L7.54212 35.9641L7.54212 35.9491L7.54212 35.9342L7.54212 35.9192L7.54212 35.9043L7.54212 35.8894L7.54212 35.8745L7.54212 35.8596L7.54212 35.8447L7.54212 35.8298L7.54212 35.815L7.54212 35.8002L7.54212 35.7854L7.54212 35.7706L7.54212 35.7558L7.54212 35.741L7.54212 35.7263L7.54212 35.7115L7.54212 35.6968L7.54212 35.6821L7.54212 35.6674L7.54212 35.6528L7.54212 35.6381L7.54212 35.6235L7.54212 35.6089L7.54212 35.5943L7.54212 35.5797L7.54212 35.5651L7.54212 35.5506L7.54212 35.536L7.54212 35.5215L7.54212 35.507L7.54212 35.4925L7.54212 35.4781L7.54212 35.4636L7.54212 35.4492L7.54212 35.4348L7.54212 35.4204L7.54212 35.406L7.54212 35.3917L7.54212 35.3773L7.54212 35.363L7.54212 35.3487L7.54212 35.3344L7.54212 35.3202L7.54212 35.3059L7.54212 35.2917L7.54212 35.2775L7.54212 35.2633L7.54212 35.2491L7.54212 35.235L7.54212 35.2208L7.54212 35.2067L7.54212 35.1926L7.54212 35.1786L7.54212 35.1645L7.54212 35.1505L7.54212 35.1365L7.54212 35.1225L7.54212 35.1085L7.54212 35.0945L7.54212 35.0806L7.54212 35.0667L7.54212 35.0528L7.54212 35.0389L7.54212 35.0251L7.54212 35.0113L7.54212 34.9975L7.54212 34.9837L7.54212 34.9699L7.54212 34.9562L7.54212 34.9424L7.54212 34.9287L7.54212 34.9151L7.54212 34.9014L7.54212 34.8878L7.54212 34.8742L7.54212 34.8606L7.54212 34.847L7.54212 34.8335L7.54212 34.8199L7.54212 34.8064L7.54212 34.793L7.54212 34.7795L7.54212 34.7661L7.54212 34.7527L7.54212 34.7393L7.54212 34.7259L7.54212 34.7126L7.54212 34.6992L7.54212 34.6859L7.54212 34.6727L7.54212 34.6594L7.54212 34.6462L7.54212 34.633L7.54212 34.6198L7.54212 34.6067L7.54212 34.5936L7.54212 34.5805L7.54212 34.5674L7.54212 34.5543L7.54212 34.5413L7.54212 34.5283L7.54212 34.5153L7.54212 34.5023L7.54212 34.4894L7.54212 34.4765L7.54212 34.4636L7.54212 34.4508L7.54212 34.4379L7.54212 34.4251L7.54212 34.4124L7.54212 34.3996L7.54212 34.3869L7.54212 34.3742L7.54212 34.3615L7.54212 34.3489L7.54212 34.3362L7.54212 34.3236L7.54212 34.3111L7.54212 34.2985L7.54212 34.286L7.54212 34.2735L7.54212 34.2611L7.54212 34.2486L7.54212 34.2362L7.54212 34.2238L7.54212 34.2115L7.54212 34.1992L7.54212 34.1869L7.54212 34.1746L7.54212 34.1623L7.54212 34.1501L7.54212 34.1379L7.54212 34.1258L7.54212 34.1136L7.54212 34.1015L7.54212 34.0895L7.54212 34.0774L7.54212 34.0654L7.54212 34.0534L7.54212 34.0414L7.54212 34.0295L7.54212 34.0176L7.54212 34.0057L7.54212 33.9939L7.54212 33.9821L7.54212 33.9703L7.54212 33.9585L7.54212 33.9468L7.54212 33.9351L7.54212 33.9234L7.54212 33.9118L7.54212 33.9002L7.54212 33.8886L7.54212 33.877L7.54212 33.8655L7.54212 33.854L7.54212 33.8426L7.54212 33.8311L7.54212 33.8198L7.54212 33.8084L7.54212 33.7971L7.54212 33.7857L7.54212 33.7745L7.54212 33.7632L7.54212 33.752L7.54212 33.7408L7.54212 33.7297L7.54212 33.7186L7.54212 33.7075L7.54212 33.6964L7.54212 33.6854L7.54212 33.6744L7.54212 33.6635L7.54212 33.6525L7.54212 33.6417L7.54212 33.6308L7.54212 33.62L7.54212 33.6092L7.54212 33.5984L7.54212 33.5877L7.54212 33.577L7.54212 33.5663L7.54212 33.5557L7.54212 33.5451L7.54212 33.5345L7.54212 33.524L7.54212 33.5135L7.54212 33.503L7.54212 33.4926L7.54212 33.4822L7.54212 33.4719L7.54212 33.4615L7.54212 33.4512L7.54212 33.441L7.54212 33.4308L7.54212 33.4206L7.54212 33.4104L7.54212 33.4003L7.54212 33.3902L7.54212 33.3802L7.54212 33.3701L7.54212 33.3602L7.54212 33.3502L7.54212 33.3403L7.54212 33.3304L7.54212 33.3206L7.54212 33.3108L7.54212 33.301L7.54212 33.2913L7.54212 33.2816L7.54212 33.2719L7.54212 33.2623L7.54212 33.2527L7.54212 33.2432L7.54212 33.2337L7.54212 33.2242L7.54212 33.2147L7.54212 33.2053L7.54212 33.196L7.54212 33.1866L7.54212 33.1773L7.54212 33.1681L7.54212 33.1589L7.54212 33.1497L7.54212 33.1405L7.54212 33.1314L7.54212 33.1224L7.54212 33.1133L7.54212 33.1043L7.54212 33.0954L7.54212 33.0865L7.54212 33.0776L7.54212 33.0688L7.54212 33.06L7.54212 33.0512L7.54212 33.0425L7.54212 33.0338L7.54212 33.0251L7.54212 33.0165L7.54212 33.008L7.54212 32.9994L7.54212 32.9909L7.54212 32.9825L7.54212 32.9741L7.54212 32.9657L7.54212 32.9574L7.54212 32.9491L7.54212 32.9408L7.54212 32.9326L7.54212 32.9244L7.54212 32.9163L7.54212 32.9082L7.54212 32.9002L7.54212 32.8921L7.54212 32.8842L7.54212 32.8762L7.54212 32.8684L7.54212 32.8605L7.54212 32.8527L7.54212 32.8449L7.54212 32.8372L7.54212 32.8295L7.54212 32.8219L7.54212 32.8143L7.54212 32.8067L7.54212 32.7992L7.54212 32.7917L7.54212 32.7843L7.54212 32.7769L7.54212 32.7696L7.54212 32.7622L7.54212 32.755L7.54212 32.7478L7.54212 32.7406L7.54212 32.7334L7.54212 32.7263L7.54212 32.7193L7.54212 32.7123L7.54212 32.7053L7.54212 32.6984L7.54212 32.6915L7.54212 32.6847L7.54212 32.6779L7.54212 32.6711L7.54212 32.6644L7.54212 32.6578L7.54212 32.6512L7.54212 32.6446L7.54212 32.6381L7.54212 32.6316L7.54212 32.6251L7.54212 32.6187L7.54212 32.6124L7.54212 32.6061L7.54212 32.5998L7.54212 32.5936L7.54212 32.5874L7.54212 32.5813L7.54212 32.5752L7.54212 32.5692L7.54212 32.5632L7.54212 32.5572L7.54212 32.5513L7.54212 32.5455L7.54212 32.5397L7.54212 32.5339L7.54212 32.5282L7.54212 32.5225L7.54212 32.5169L7.54212 32.5113L7.54212 32.5058L7.54212 32.5003L7.54212 32.4949L7.54212 32.4895L7.54212 32.4841L7.54212 32.4788L7.54212 32.4736L7.54212 32.4684L7.54212 32.4632L7.54212 32.4581L7.54212 32.453L7.54212 32.448L7.54212 32.4431L7.54212 32.4381L7.54212 32.4333L7.54212 32.4284L7.54212 32.4237L7.54212 32.4189L7.54212 32.4143L7.54212 32.4096L7.54212 32.4051L7.54212 32.4005L7.54212 32.396L7.54212 32.3916L7.54212 32.3872L7.54212 32.3829L7.54212 32.3786L7.54212 32.3743L7.54212 32.3702L7.54212 32.366L7.54212 32.3619L7.54212 32.3579L7.54212 32.3539L7.54212 32.3499L7.54212 32.346L7.54212 32.3422L7.54212 32.3384L7.54212 32.3347L7.54212 32.331L3.60873 32.331L3.60873 32.3347L3.60873 32.3384L3.60873 32.3422L3.60873 32.346L3.60873 32.3499L3.60873 32.3539L3.60873 32.3579L3.60873 32.3619L3.60873 32.366L3.60873 32.3702L3.60873 32.3743L3.60873 32.3786L3.60873 32.3829L3.60873 32.3872L3.60873 32.3916L3.60873 32.396L3.60873 32.4005L3.60873 32.4051L3.60873 32.4096L3.60873 32.4143L3.60873 32.4189L3.60873 32.4237L3.60873 32.4284L3.60873 32.4333L3.60873 32.4381L3.60873 32.4431L3.60873 32.448L3.60873 32.453L3.60873 32.4581L3.60873 32.4632L3.60873 32.4684L3.60873 32.4736L3.60873 32.4788L3.60873 32.4841L3.60873 32.4895L3.60873 32.4949L3.60873 32.5003L3.60873 32.5058L3.60873 32.5113L3.60873 32.5169L3.60873 32.5225L3.60873 32.5282L3.60873 32.5339L3.60873 32.5397L3.60873 32.5455L3.60873 32.5513L3.60873 32.5572L3.60873 32.5632L3.60873 32.5692L3.60873 32.5752L3.60873 32.5813L3.60873 32.5874L3.60873 32.5936L3.60873 32.5998L3.60873 32.6061L3.60873 32.6124L3.60873 32.6187L3.60873 32.6251L3.60873 32.6316L3.60873 32.6381L3.60873 32.6446L3.60873 32.6512L3.60873 32.6578L3.60873 32.6644L3.60873 32.6711L3.60873 32.6779L3.60873 32.6847L3.60873 32.6915L3.60873 32.6984L3.60873 32.7053L3.60873 32.7123L3.60873 32.7193L3.60873 32.7263L3.60873 32.7334L3.60873 32.7406L3.60873 32.7478L3.60873 32.755L3.60873 32.7622L3.60873 32.7696L3.60873 32.7769L3.60873 32.7843L3.60873 32.7917L3.60873 32.7992L3.60873 32.8067L3.60873 32.8143L3.60873 32.8219L3.60873 32.8295L3.60873 32.8372L3.60873 32.8449L3.60873 32.8527L3.60873 32.8605L3.60873 32.8684L3.60873 32.8762L3.60873 32.8842L3.60873 32.8921L3.60873 32.9002L3.60873 32.9082L3.60873 32.9163L3.60873 32.9244L3.60873 32.9326L3.60873 32.9408L3.60873 32.9491L3.60873 32.9574L3.60873 32.9657L3.60873 32.9741L3.60873 32.9825L3.60873 32.9909L3.60873 32.9994L3.60873 33.008L3.60873 33.0165L3.60873 33.0251L3.60873 33.0338L3.60873 33.0425L3.60873 33.0512L3.60873 33.06L3.60873 33.0688L3.60873 33.0776L3.60873 33.0865L3.60873 33.0954L3.60873 33.1043L3.60873 33.1133L3.60873 33.1224L3.60873 33.1314L3.60873 33.1405L3.60873 33.1497L3.60873 33.1589L3.60873 33.1681L3.60873 33.1773L3.60873 33.1866L3.60873 33.196L3.60873 33.2053L3.60873 33.2147L3.60873 33.2242L3.60873 33.2337L3.60873 33.2432L3.60873 33.2527L3.60873 33.2623L3.60873 33.2719L3.60873 33.2816L3.60873 33.2913L3.60873 33.301L3.60873 33.3108L3.60873 33.3206L3.60873 33.3304L3.60873 33.3403L3.60873 33.3502L3.60873 33.3602L3.60873 33.3701L3.60873 33.3802L3.60873 33.3902L3.60873 33.4003L3.60873 33.4104L3.60873 33.4206L3.60873 33.4308L3.60873 33.441L3.60873 33.4512L3.60873 33.4615L3.60873 33.4719L3.60873 33.4822L3.60873 33.4926L3.60873 33.503L3.60873 33.5135L3.60873 33.524L3.60873 33.5345L3.60873 33.5451L3.60873 33.5557L3.60873 33.5663L3.60873 33.577L3.60873 33.5877L3.60873 33.5984L3.60873 33.6092L3.60873 33.62L3.60873 33.6308L3.60873 33.6417L3.60873 33.6525L3.60873 33.6635L3.60873 33.6744L3.60873 33.6854L3.60873 33.6964L3.60873 33.7075L3.60873 33.7186L3.60873 33.7297L3.60873 33.7408L3.60873 33.752L3.60873 33.7632L3.60873 33.7745L3.60873 33.7857L3.60873 33.7971L3.60873 33.8084L3.60873 33.8198L3.60873 33.8311L3.60873 33.8426L3.60873 33.854L3.60873 33.8655L3.60873 33.877L3.60873 33.8886L3.60873 33.9002L3.60873 33.9118L3.60873 33.9234L3.60873 33.9351L3.60873 33.9468L3.60873 33.9585L3.60873 33.9703L3.60873 33.9821L3.60873 33.9939L3.60873 34.0057L3.60873 34.0176L3.60873 34.0295L3.60873 34.0414L3.60873 34.0534L3.60873 34.0654L3.60873 34.0774L3.60873 34.0895L3.60873 34.1015L3.60873 34.1136L3.60873 34.1258L3.60873 34.1379L3.60873 34.1501L3.60873 34.1623L3.60873 34.1746L3.60873 34.1869L3.60873 34.1992L3.60873 34.2115L3.60873 34.2238L3.60873 34.2362L3.60873 34.2486L3.60873 34.2611L3.60873 34.2735L3.60873 34.286L3.60873 34.2985L3.60873 34.3111L3.60873 34.3236L3.60873 34.3362L3.60873 34.3489L3.60873 34.3615L3.60873 34.3742L3.60873 34.3869L3.60873 34.3996L3.60873 34.4124L3.60873 34.4251L3.60873 34.4379L3.60873 34.4508L3.60873 34.4636L3.60873 34.4765L3.60873 34.4894L3.60873 34.5023L3.60873 34.5153L3.60873 34.5283L3.60873 34.5413L3.60873 34.5543L3.60873 34.5674L3.60873 34.5805L3.60873 34.5936L3.60873 34.6067L3.60873 34.6198L3.60873 34.633L3.60873 34.6462L3.60873 34.6594L3.60873 34.6727L3.60873 34.6859L3.60873 34.6992L3.60873 34.7126L3.60873 34.7259L3.60873 34.7393L3.60873 34.7527L3.60873 34.7661L3.60873 34.7795L3.60873 34.793L3.60873 34.8064L3.60873 34.8199L3.60873 34.8335L3.60873 34.847L3.60873 34.8606L3.60873 34.8742L3.60873 34.8878L3.60873 34.9014L3.60873 34.9151L3.60873 34.9287L3.60873 34.9424L3.60873 34.9562L3.60873 34.9699L3.60873 34.9837L3.60873 34.9975L3.60873 35.0113L3.60873 35.0251L3.60873 35.0389L3.60873 35.0528L3.60873 35.0667L3.60873 35.0806L3.60873 35.0945L3.60873 35.1085L3.60873 35.1225L3.60873 35.1365L3.60873 35.1505L3.60873 35.1645L3.60873 35.1786L3.60873 35.1926L3.60873 35.2067L3.60873 35.2208L3.60873 35.235L3.60873 35.2491L3.60873 35.2633L3.60873 35.2775L3.60873 35.2917L3.60873 35.3059L3.60873 35.3202L3.60873 35.3344L3.60873 35.3487L3.60873 35.363L3.60873 35.3773L3.60873 35.3917L3.60873 35.406L3.60873 35.4204L3.60873 35.4348L3.60873 35.4492L3.60873 35.4636L3.60873 35.4781L3.60873 35.4925L3.60873 35.507L3.60873 35.5215L3.60873 35.536L3.60873 35.5506L3.60873 35.5651L3.60873 35.5797L3.60873 35.5943L3.60873 35.6089L3.60873 35.6235L3.60873 35.6381L3.60873 35.6528L3.60873 35.6674L3.60873 35.6821L3.60873 35.6968L3.60873 35.7115L3.60873 35.7263L3.60873 35.741L3.60873 35.7558L3.60873 35.7706L3.60873 35.7854L3.60873 35.8002L3.60873 35.815L3.60873 35.8298L3.60873 35.8447L3.60873 35.8596L3.60873 35.8745L3.60873 35.8894L3.60873 35.9043L3.60873 35.9192L3.60873 35.9342L3.60873 35.9491L3.60873 35.9641L3.60873 35.9791L3.60873 35.9941L3.60873 36.0091L3.60873 36.0241L3.60873 36.0392L3.60873 36.0542L3.60873 36.0693L3.60873 36.0844L3.60873 36.0995L3.60873 36.1146L3.60873 36.1297L3.60873 36.1449L3.60873 36.16L3.60873 36.1752L3.60873 36.1903L3.60873 36.2055L3.60873 36.2207L3.60873 36.2359L3.60873 36.2512L3.60873 36.2664L3.60873 36.2817L3.60873 36.2969L3.60873 36.3122L3.60873 36.3275L3.60873 36.3428L3.60873 36.3581L3.60873 36.3734L3.60873 36.3888L3.60873 36.4041L3.60873 36.4195L3.60873 36.4348L3.60873 36.4502L3.60873 36.4656L3.60873 36.481L3.60873 36.4964L3.60873 36.5118L3.60873 36.5272L3.60873 36.5427L3.60873 36.5581L3.60873 36.5736L3.60873 36.5891L3.60873 36.6046L3.60873 36.62L3.60873 36.6355L3.60873 36.6511L3.60873 36.6666L3.60873 36.6821L3.60873 36.6977L3.60873 36.7132L3.60873 36.7288L3.60873 36.7443L3.60873 36.7599L3.60873 36.7755L3.60873 36.7911L3.60873 36.8067L3.60873 36.8223L3.60873 36.8379L3.60873 36.8535L3.60873 36.8692L3.60873 36.8848L3.60873 36.9005L3.60873 36.9161L3.60873 36.9318L3.60873 36.9475L3.60873 36.9632L3.60873 36.9788L3.60873 36.9945L3.60873 37.0103L3.60873 37.026L3.60873 37.0417L3.60873 37.0574L3.60873 37.0731L3.60873 37.0889L3.60873 37.1046L3.60873 37.1204L3.60873 37.1361L3.60873 37.1519L3.60873 37.1677L3.60873 37.1835L3.60873 37.1992L3.60873 37.215L3.60873 37.2308L3.60873 37.2466L3.60873 37.2624L3.60873 37.2783L3.60873 37.2941L3.60873 37.3099L3.60873 37.3257L3.60873 37.3416L3.60873 37.3574L3.60873 37.3732L3.60873 37.3891L3.60873 37.4049L3.60873 37.4208L3.60873 37.4367L3.60873 37.4525L3.60873 37.4684L3.60873 37.4843L3.60873 37.5002L3.60873 37.516L3.60873 37.5319L3.60873 37.5478L3.60873 37.5637L3.60873 37.5796L3.60873 37.5955L3.60873 37.6114L3.60873 37.6273L3.60873 37.6432L3.60873 37.6592L3.60873 37.6751L3.60873 37.691L3.60873 37.7069L3.60873 37.7228L3.60873 37.7388L3.60873 37.7547L3.60873 37.7706L3.60873 37.7866L3.60873 37.8025L3.60873 37.8185L3.60873 37.8344L3.60873 37.8503L3.60873 37.8663L3.60873 37.8822L3.60873 37.8982L3.60873 37.9141L3.60873 37.9301L3.60873 37.946L3.60873 37.962L3.60873 37.9779L3.60873 37.9939L3.60873 38.0098L3.60873 38.0258L3.60873 38.0418L3.60873 38.0577L3.60873 38.0737L3.60873 38.0896L3.60873 38.1056L3.60873 38.1216L3.60873 38.1375L3.60873 38.1535L3.60873 38.1694L3.60873 38.1854L3.60873 38.2013L3.60873 38.2173L3.60873 38.2333L3.60873 38.2492L3.60873 38.2652L3.60873 38.2811L3.60873 38.2971L3.60873 38.313L3.60873 38.329L3.60873 38.3449L3.60873 38.3609L3.60873 38.3768L3.60873 38.3927L3.60873 38.4087L3.60873 38.4246L3.60873 38.4406L3.60873 38.4565L3.60873 38.4724L3.60873 38.4884L3.60873 38.5043Z" fill="#1E1E1E"/>
<path fill-rule="evenodd" clip-rule="evenodd" d="M35.9983 15.6141L41.6284 23.317L47.2584 15.6141L43.6497 15.6141L43.6497 15.6104L43.6497 15.6067L43.6497 15.6029L43.6497 15.599L43.6497 15.5951L43.6497 15.5912L43.6497 15.5872L43.6497 15.5832L43.6497 15.5791L43.6497 15.5749L43.6497 15.5707L43.6497 15.5665L43.6497 15.5622L43.6497 15.5579L43.6497 15.5535L43.6497 15.549L43.6497 15.5445L43.6497 15.54L43.6497 15.5354L43.6497 15.5308L43.6497 15.5261L43.6497 15.5214L43.6497 15.5166L43.6497 15.5118L43.6497 15.5069L43.6497 15.502L43.6497 15.497L43.6497 15.492L43.6497 15.487L43.6497 15.4819L43.6497 15.4767L43.6497 15.4715L43.6497 15.4662L43.6497 15.4609L43.6497 15.4556L43.6497 15.4502L43.6497 15.4448L43.6497 15.4393L43.6497 15.4337L43.6497 15.4282L43.6497 15.4225L43.6497 15.4169L43.6497 15.4112L43.6497 15.4054L43.6497 15.3996L43.6497 15.3937L43.6497 15.3878L43.6497 15.3819L43.6497 15.3759L43.6497 15.3699L43.6497 15.3638L43.6497 15.3576L43.6497 15.3515L43.6497 15.3453L43.6497 15.339L43.6497 15.3327L43.6497 15.3263L43.6497 15.3199L43.6497 15.3135L43.6497 15.307L43.6497 15.3005L43.6497 15.2939L43.6497 15.2873L43.6497 15.2806L43.6497 15.2739L43.6497 15.2672L43.6497 15.2604L43.6497 15.2536L43.6497 15.2467L43.6497 15.2397L43.6497 15.2328L43.6497 15.2258L43.6497 15.2187L43.6497 15.2116L43.6497 15.2045L43.6497 15.1973L43.6497 15.1901L43.6497 15.1828L43.6497 15.1755L43.6497 15.1682L43.6497 15.1608L43.6497 15.1533L43.6497 15.1459L43.6497 15.1384L43.6497 15.1308L43.6497 15.1232L43.6497 15.1155L43.6497 15.1079L43.6497 15.1001L43.6497 15.0924L43.6497 15.0846L43.6497 15.0767L43.6497 15.0688L43.6497 15.0609L43.6497 15.0529L43.6497 15.0449L43.6497 15.0369L43.6497 15.0288L43.6497 15.0206L43.6497 15.0125L43.6497 15.0043L43.6497 14.996L43.6497 14.9877L43.6497 14.9794L43.6497 14.971L43.6497 14.9626L43.6497 14.9541L43.6497 14.9456L43.6497 14.9371L43.6497 14.9285L43.6497 14.9199L43.6497 14.9113L43.6497 14.9026L43.6497 14.8939L43.6497 14.8851L43.6497 14.8763L43.6497 14.8675L43.6497 14.8586L43.6497 14.8497L43.6497 14.8407L43.6497 14.8317L43.6497 14.8227L43.6497 14.8136L43.6497 14.8045L43.6497 14.7954L43.6497 14.7862L43.6497 14.777L43.6497 14.7677L43.6497 14.7584L43.6497 14.7491L43.6497 14.7397L43.6497 14.7303L43.6497 14.7209L43.6497 14.7114L43.6497 14.7019L43.6497 14.6923L43.6497 14.6828L43.6497 14.6731L43.6497 14.6635L43.6497 14.6538L43.6497 14.644L43.6497 14.6343L43.6497 14.6245L43.6497 14.6146L43.6497 14.6048L43.6497 14.5949L43.6497 14.5849L43.6497 14.5749L43.6497 14.5649L43.6497 14.5549L43.6497 14.5448L43.6497 14.5347L43.6497 14.5245L43.6497 14.5143L43.6497 14.5041L43.6497 14.4938L43.6497 14.4835L43.6497 14.4732L43.6497 14.4628L43.6497 14.4525L43.6497 14.442L43.6497 14.4316L43.6497 14.4211L43.6497 14.4105L43.6497 14.4L43.6497 14.3894L43.6497 14.3787L43.6497 14.3681L43.6497 14.3574L43.6497 14.3467L43.6497 14.3359L43.6497 14.3251L43.6497 14.3143L43.6497 14.3034L43.6497 14.2925L43.6497 14.2816L43.6497 14.2706L43.6497 14.2597L43.6497 14.2486L43.6497 14.2376L43.6497 14.2265L43.6497 14.2154L43.6497 14.2042L43.6497 14.1931L43.6497 14.1818L43.6497 14.1706L43.6497 14.1593L43.6497 14.148L43.6497 14.1367L43.6497 14.1253L43.6497 14.1139L43.6497 14.1025L43.6497 14.091L43.6497 14.0795L43.6497 14.068L43.6497 14.0565L43.6497 14.0449L43.6497 14.0333L43.6497 14.0216L43.6497 14.01L43.6497 13.9983L43.6497 13.9866L43.6497 13.9748L43.6497 13.963L43.6497 13.9512L43.6497 13.9393L43.6497 13.9275L43.6497 13.9156L43.6497 13.9036L43.6497 13.8917L43.6497 13.8797L43.6497 13.8677L43.6497 13.8556L43.6497 13.8435L43.6497 13.8314L43.6497 13.8193L43.6497 13.8071L43.6497 13.7949L43.6497 13.7827L43.6497 13.7705L43.6497 13.7582L43.6497 13.7459L43.6497 13.7336L43.6497 13.7212L43.6497 13.7088L43.6497 13.6964L43.6497 13.684L43.6497 13.6715L43.6497 13.6591L43.6497 13.6465L43.6497 13.634L43.6497 13.6214L43.6497 13.6088L43.6497 13.5962L43.6497 13.5836L43.6497 13.5709L43.6497 13.5582L43.6497 13.5455L43.6497 13.5327L43.6497 13.5199L43.6497 13.5071L43.6497 13.4943L43.6497 13.4814L43.6497 13.4686L43.6497 13.4557L43.6497 13.4427L43.6497 13.4298L43.6497 13.4168L43.6497 13.4038L43.6497 13.3907L43.6497 13.3777L43.6497 13.3646L43.6497 13.3515L43.6497 13.3384L43.6497 13.3252L43.6497 13.3121L43.6497 13.2989L43.6497 13.2856L43.6497 13.2724L43.6497 13.2591L43.6497 13.2458L43.6497 13.2325L43.6497 13.2192L43.6497 13.2058L43.6497 13.1924L43.6497 13.179L43.6497 13.1656L43.6497 13.1521L43.6497 13.1386L43.6497 13.1251L43.6497 13.1116L43.6497 13.0981L43.6497 13.0845L43.6497 13.0709L43.6497 13.0573L43.6497 13.0437L43.6497 13.03L43.6497 13.0163L43.6497 13.0026L43.6497 12.9889L43.6497 12.9752L43.6497 12.9614L43.6497 12.9476L43.6497 12.9338L43.6497 12.92L43.6497 12.9061L43.6497 12.8923L43.6497 12.8784L43.6497 12.8645L43.6497 12.8505L43.6497 12.8366L43.6497 12.8226L43.6497 12.8086L43.6497 12.7946L43.6497 12.7806L43.6497 12.7665L43.6497 12.7524L43.6497 12.7383L43.6497 12.7242L43.6497 12.7101L43.6497 12.696L43.6497 12.6818L43.6497 12.6676L43.6497 12.6534L43.6497 12.6392L43.6497 12.6249L43.6497 12.6107L43.6497 12.5964L43.6497 12.5821L43.6497 12.5677L43.6497 12.5534L43.6497 12.5391L43.6497 12.5247L43.6497 12.5103L43.6497 12.4959L43.6497 12.4814L43.6497 12.467L43.6497 12.4525L43.6497 12.4381L43.6497 12.4236L43.6497 12.409L43.6497 12.3945L43.6497 12.3799L43.6497 12.3654L43.6497 12.3508L43.6497 12.3362L43.6497 12.3216L43.6497 12.3069L43.6497 12.2923L43.6497 12.2776L43.6497 12.2629L43.6497 12.2482L43.6497 12.2335L43.6497 12.2188L43.6497 12.204L43.6497 12.1893L43.6497 12.1745L43.6497 12.1597L43.6497 12.1449L43.6497 12.1301L43.6497 12.1152L43.6497 12.1004L43.6497 12.0855L43.6497 12.0706L43.6497 12.0557L43.6497 12.0408L43.6497 12.0259L43.6497 12.0109L43.6497 11.996L43.6497 11.981L43.6497 11.966L43.6497 11.951L43.6497 11.936L43.6497 11.9209L43.6497 11.9059L43.6497 11.8908L43.6497 11.8758L43.6497 11.8607L43.6497 11.8456L43.6497 11.8305L43.6497 11.8154L43.6497 11.8002L43.6497 11.7851L43.6497 11.7699L43.6497 11.7547L43.6497 11.7395L43.6497 11.7243L43.6497 11.7091L43.6497 11.6939L43.6497 11.6787L43.6497 11.6634L43.6497 11.6481L43.6497 11.6329L43.6497 11.6176L43.6497 11.6023L43.6497 11.587L43.6497 11.5716L43.6497 11.5563L43.6497 11.541L43.6497 11.5256L43.6497 11.5102L43.6497 11.4949L43.6497 11.4795L43.6497 11.4641L43.6497 11.4487L43.6497 11.4333L43.6497 11.4178L43.6497 11.4024L43.6497 11.3869L43.6497 11.3715L43.6497 11.356L43.6497 11.3405L43.6497 11.325L43.6497 11.3095L43.6497 11.294L43.6497 11.2785L43.6497 11.263L43.6497 11.2474L43.6497 11.2319L43.6497 11.2163L43.6497 11.2007L43.6497 11.1852L43.6497 11.1696L43.6497 11.154L43.6497 11.1384L43.6497 11.1228L43.6497 11.1072L43.6497 11.0915L43.6497 11.0759L43.6497 11.0602L43.6497 11.0446L43.6497 11.0289L43.6497 11.0133L43.6497 10.9976L43.6497 10.9819L43.6497 10.9662L43.6497 10.9505L43.6497 10.9348L43.6497 10.9191L43.6497 10.9034L43.6497 10.8877L43.6497 10.8719L43.6497 10.8562L43.6497 10.8404L43.6497 10.8247L43.6497 10.8089L43.6497 10.7932L43.6497 10.7774L43.6497 10.7616L43.6497 10.7458L43.6497 10.73L43.6497 10.7142L43.6497 10.6984L43.6497 10.6826L43.6497 10.6668L43.6497 10.651L43.6497 10.6352L43.6497 10.6193L43.6497 10.6035L43.6497 10.5877L43.6497 10.5718L43.6497 10.556L43.6497 10.5401L43.6497 10.5243L43.6497 10.5084L43.6497 10.4925L43.6497 10.4767L43.6497 10.4608L43.6497 10.4449L43.6497 10.429L43.6497 10.4131L43.6497 10.3972L43.6497 10.3813L43.6497 10.3654L43.6497 10.3495L43.6497 10.3336L43.6497 10.3177L43.6497 10.3018L43.6497 10.2859L43.6497 10.27L43.6497 10.2541L43.6497 10.2381L43.6497 10.2222L43.6497 10.2063L43.6497 10.1904L43.6497 10.1744L43.6497 10.1585L43.6497 10.1426L43.6497 10.1266L43.6497 10.1107L43.6497 10.0947L43.6497 10.0788L43.6497 10.0628L43.6497 10.0469L43.6497 10.0309L43.6497 10.015L43.6497 9.99904L43.6497 9.98308L43.6497 9.96713L43.6497 9.95117L43.6497 9.93522L43.6497 9.91926L43.6497 9.90331L43.6497 9.88735L43.6497 9.87139L43.6497 9.85543L43.6497 9.83947L43.6497 9.82352L43.6497 9.80756L43.6497 9.7916L43.6497 9.77564L43.6497 9.75969L43.6497 9.74373L43.6497 9.72777L43.6497 9.71182L43.6497 9.69586L43.6497 9.67991L43.6497 9.66395L43.6497 9.648L43.6497 9.63205L43.6497 9.6161L43.6497 9.60016L43.6497 9.58421L43.6497 9.56826L43.6497 9.55232L43.6497 9.53638L43.6497 9.52044L43.6497 9.5045L43.6497 9.48857L43.6497 9.47263L43.6497 9.4567L43.6497 9.44078L43.6497 9.33839C43.6499 8.60382 43.6501 7.86979 43.5682 7.26055C43.4748 6.56641 43.244 5.7482 42.5616 5.06588C41.8793 4.38354 41.0611 4.15268 40.3669 4.05936C39.7577 3.97745 39.0236 3.97762 38.2891 3.9778L38.1867 3.97782L17.3725 3.97781L17.3725 7.9112L38.1867 7.91121C38.9315 7.91121 39.3768 7.9142 39.6867 7.94078C39.7133 8.25073 39.7163 8.69603 39.7163 9.44078L39.7163 9.4567L39.7163 9.47263L39.7163 9.48857L39.7163 9.5045L39.7163 9.52044L39.7163 9.53638L39.7163 9.55232L39.7163 9.56826L39.7163 9.58421L39.7163 9.60016L39.7163 9.6161L39.7163 9.63205L39.7163 9.648L39.7163 9.66395L39.7163 9.67991L39.7163 9.69586L39.7163 9.71182L39.7163 9.72777L39.7163 9.74373L39.7163 9.75969L39.7163 9.77564L39.7163 9.7916L39.7163 9.80756L39.7163 9.82352L39.7163 9.83947L39.7163 9.85543L39.7163 9.87139L39.7163 9.88735L39.7163 9.90331L39.7163 9.91926L39.7163 9.93522L39.7163 9.95117L39.7163 9.96713L39.7163 9.98308L39.7163 9.99904L39.7163 10.015L39.7163 10.0309L39.7163 10.0469L39.7163 10.0628L39.7163 10.0788L39.7163 10.0947L39.7163 10.1107L39.7163 10.1266L39.7163 10.1426L39.7163 10.1585L39.7163 10.1744L39.7163 10.1904L39.7163 10.2063L39.7163 10.2222L39.7163 10.2381L39.7163 10.2541L39.7163 10.27L39.7163 10.2859L39.7163 10.3018L39.7163 10.3177L39.7163 10.3336L39.7163 10.3495L39.7163 10.3654L39.7163 10.3813L39.7163 10.3972L39.7163 10.4131L39.7163 10.429L39.7163 10.4449L39.7163 10.4608L39.7163 10.4767L39.7163 10.4925L39.7163 10.5084L39.7163 10.5243L39.7163 10.5401L39.7163 10.556L39.7163 10.5718L39.7163 10.5877L39.7163 10.6035L39.7163 10.6193L39.7163 10.6352L39.7163 10.651L39.7163 10.6668L39.7163 10.6826L39.7163 10.6984L39.7163 10.7142L39.7163 10.73L39.7163 10.7458L39.7163 10.7616L39.7163 10.7774L39.7163 10.7932L39.7163 10.8089L39.7163 10.8247L39.7163 10.8404L39.7163 10.8562L39.7163 10.8719L39.7163 10.8877L39.7163 10.9034L39.7163 10.9191L39.7163 10.9348L39.7163 10.9505L39.7163 10.9662L39.7163 10.9819L39.7163 10.9976L39.7163 11.0133L39.7163 11.0289L39.7163 11.0446L39.7163 11.0602L39.7163 11.0759L39.7163 11.0915L39.7163 11.1072L39.7163 11.1228L39.7163 11.1384L39.7163 11.154L39.7163 11.1696L39.7163 11.1852L39.7163 11.2007L39.7163 11.2163L39.7163 11.2319L39.7163 11.2474L39.7163 11.263L39.7163 11.2785L39.7163 11.294L39.7163 11.3095L39.7163 11.325L39.7163 11.3405L39.7163 11.356L39.7163 11.3715L39.7163 11.3869L39.7163 11.4024L39.7163 11.4178L39.7163 11.4333L39.7163 11.4487L39.7163 11.4641L39.7163 11.4795L39.7163 11.4949L39.7163 11.5102L39.7163 11.5256L39.7163 11.541L39.7163 11.5563L39.7163 11.5716L39.7163 11.587L39.7163 11.6023L39.7163 11.6176L39.7163 11.6329L39.7163 11.6481L39.7163 11.6634L39.7163 11.6787L39.7163 11.6939L39.7163 11.7091L39.7163 11.7243L39.7163 11.7395L39.7163 11.7547L39.7163 11.7699L39.7163 11.7851L39.7163 11.8002L39.7163 11.8154L39.7163 11.8305L39.7163 11.8456L39.7163 11.8607L39.7163 11.8758L39.7163 11.8908L39.7163 11.9059L39.7163 11.9209L39.7163 11.936L39.7163 11.951L39.7163 11.966L39.7163 11.981L39.7163 11.996L39.7163 12.0109L39.7163 12.0259L39.7163 12.0408L39.7163 12.0557L39.7163 12.0706L39.7163 12.0855L39.7163 12.1004L39.7163 12.1152L39.7163 12.1301L39.7163 12.1449L39.7163 12.1597L39.7163 12.1745L39.7163 12.1893L39.7163 12.204L39.7163 12.2188L39.7163 12.2335L39.7163 12.2482L39.7163 12.2629L39.7163 12.2776L39.7163 12.2923L39.7163 12.3069L39.7163 12.3216L39.7163 12.3362L39.7163 12.3508L39.7163 12.3654L39.7163 12.3799L39.7163 12.3945L39.7163 12.409L39.7163 12.4236L39.7163 12.438L39.7163 12.4525L39.7163 12.467L39.7163 12.4814L39.7163 12.4959L39.7163 12.5103L39.7163 12.5247L39.7163 12.5391L39.7163 12.5534L39.7163 12.5677L39.7163 12.5821L39.7163 12.5964L39.7163 12.6107L39.7163 12.6249L39.7163 12.6392L39.7163 12.6534L39.7163 12.6676L39.7163 12.6818L39.7163 12.696L39.7163 12.7101L39.7163 12.7242L39.7163 12.7383L39.7163 12.7524L39.7163 12.7665L39.7163 12.7806L39.7163 12.7946L39.7163 12.8086L39.7163 12.8226L39.7163 12.8366L39.7163 12.8505L39.7163 12.8645L39.7163 12.8784L39.7163 12.8923L39.7163 12.9061L39.7163 12.92L39.7163 12.9338L39.7163 12.9476L39.7163 12.9614L39.7163 12.9752L39.7163 12.9889L39.7163 13.0026L39.7163 13.0163L39.7163 13.03L39.7163 13.0437L39.7163 13.0573L39.7163 13.0709L39.7163 13.0845L39.7163 13.0981L39.7163 13.1116L39.7163 13.1251L39.7163 13.1386L39.7163 13.1521L39.7163 13.1656L39.7163 13.179L39.7163 13.1924L39.7163 13.2058L39.7163 13.2192L39.7163 13.2325L39.7163 13.2458L39.7163 13.2591L39.7163 13.2724L39.7163 13.2856L39.7163 13.2989L39.7163 13.3121L39.7163 13.3252L39.7163 13.3384L39.7163 13.3515L39.7163 13.3646L39.7163 13.3777L39.7163 13.3907L39.7163 13.4038L39.7163 13.4168L39.7163 13.4298L39.7163 13.4427L39.7163 13.4556L39.7163 13.4686L39.7163 13.4814L39.7163 13.4943L39.7163 13.5071L39.7163 13.5199L39.7163 13.5327L39.7163 13.5455L39.7163 13.5582L39.7163 13.5709L39.7163 13.5836L39.7163 13.5962L39.7163 13.6088L39.7163 13.6214L39.7163 13.634L39.7163 13.6465L39.7163 13.6591L39.7163 13.6715L39.7163 13.684L39.7163 13.6964L39.7163 13.7088L39.7163 13.7212L39.7163 13.7336L39.7163 13.7459L39.7163 13.7582L39.7163 13.7705L39.7163 13.7827L39.7163 13.7949L39.7163 13.8071L39.7163 13.8193L39.7163 13.8314L39.7163 13.8435L39.7163 13.8556L39.7163 13.8677L39.7163 13.8797L39.7163 13.8917L39.7163 13.9036L39.7163 13.9156L39.7163 13.9275L39.7163 13.9393L39.7163 13.9512L39.7163 13.963L39.7163 13.9748L39.7163 13.9866L39.7163 13.9983L39.7163 14.01L39.7163 14.0216L39.7163 14.0333L39.7163 14.0449L39.7163 14.0565L39.7163 14.068L39.7163 14.0795L39.7163 14.091L39.7163 14.1025L39.7163 14.1139L39.7163 14.1253L39.7163 14.1367L39.7163 14.148L39.7163 14.1593L39.7163 14.1706L39.7163 14.1818L39.7163 14.1931L39.7163 14.2042L39.7163 14.2154L39.7163 14.2265L39.7163 14.2376L39.7163 14.2486L39.7163 14.2597L39.7163 14.2706L39.7163 14.2816L39.7163 14.2925L39.7163 14.3034L39.7163 14.3143L39.7163 14.3251L39.7163 14.3359L39.7163 14.3467L39.7163 14.3574L39.7163 14.3681L39.7163 14.3787L39.7163 14.3894L39.7163 14.4L39.7163 14.4105L39.7163 14.4211L39.7163 14.4316L39.7163 14.442L39.7163 14.4525L39.7163 14.4628L39.7163 14.4732L39.7163 14.4835L39.7163 14.4938L39.7163 14.5041L39.7163 14.5143L39.7163 14.5245L39.7163 14.5347L39.7163 14.5448L39.7163 14.5549L39.7163 14.5649L39.7163 14.5749L39.7163 14.5849L39.7163 14.5949L39.7163 14.6048L39.7163 14.6146L39.7163 14.6245L39.7163 14.6343L39.7163 14.644L39.7163 14.6538L39.7163 14.6635L39.7163 14.6731L39.7163 14.6828L39.7163 14.6923L39.7163 14.7019L39.7163 14.7114L39.7163 14.7209L39.7163 14.7303L39.7163 14.7397L39.7163 14.7491L39.7163 14.7584L39.7163 14.7677L39.7163 14.777L39.7163 14.7862L39.7163 14.7954L39.7163 14.8045L39.7163 14.8136L39.7163 14.8227L39.7163 14.8317L39.7163 14.8407L39.7163 14.8497L39.7163 14.8586L39.7163 14.8675L39.7163 14.8763L39.7163 14.8851L39.7163 14.8939L39.7163 14.9026L39.7163 14.9113L39.7163 14.9199L39.7163 14.9285L39.7163 14.9371L39.7163 14.9456L39.7163 14.9541L39.7163 14.9626L39.7163 14.971L39.7163 14.9794L39.7163 14.9877L39.7163 14.996L39.7163 15.0043L39.7163 15.0125L39.7163 15.0206L39.7163 15.0288L39.7163 15.0369L39.7163 15.0449L39.7163 15.0529L39.7163 15.0609L39.7163 15.0688L39.7163 15.0767L39.7163 15.0846L39.7163 15.0924L39.7163 15.1001L39.7163 15.1079L39.7163 15.1155L39.7163 15.1232L39.7163 15.1308L39.7163 15.1384L39.7163 15.1459L39.7163 15.1533L39.7163 15.1608L39.7163 15.1682L39.7163 15.1755L39.7163 15.1828L39.7163 15.1901L39.7163 15.1973L39.7163 15.2045L39.7163 15.2116L39.7163 15.2187L39.7163 15.2258L39.7163 15.2328L39.7163 15.2397L39.7163 15.2467L39.7163 15.2536L39.7163 15.2604L39.7163 15.2672L39.7163 15.2739L39.7163 15.2806L39.7163 15.2873L39.7163 15.2939L39.7163 15.3005L39.7163 15.307L39.7163 15.3135L39.7163 15.3199L39.7163 15.3263L39.7163 15.3327L39.7163 15.339L39.7163 15.3453L39.7163 15.3515L39.7163 15.3576L39.7163 15.3638L39.7163 15.3699L39.7163 15.3759L39.7163 15.3819L39.7163 15.3878L39.7163 15.3937L39.7163 15.3996L39.7163 15.4054L39.7163 15.4112L39.7163 15.4169L39.7163 15.4225L39.7163 15.4282L39.7163 15.4337L39.7163 15.4393L39.7163 15.4448L39.7163 15.4502L39.7163 15.4556L39.7163 15.4609L39.7163 15.4662L39.7163 15.4715L39.7163 15.4767L39.7163 15.4819L39.7163 15.487L39.7163 15.492L39.7163 15.497L39.7163 15.502L39.7163 15.5069L39.7163 15.5118L39.7163 15.5166L39.7163 15.5214L39.7163 15.5261L39.7163 15.5308L39.7163 15.5354L39.7163 15.54L39.7163 15.5445L39.7163 15.549L39.7163 15.5535L39.7163 15.5579L39.7163 15.5622L39.7163 15.5665L39.7163 15.5707L39.7163 15.5749L39.7163 15.5791L39.7163 15.5832L39.7163 15.5872L39.7163 15.5912L39.7163 15.5951L39.7163 15.599L39.7163 15.6029L39.7163 15.6067L39.7163 15.6104L39.7163 15.6141L35.9983 15.6141Z" fill="#FFB800"/>
<path fill-rule="evenodd" clip-rule="evenodd" d="M15.2419 11.6292L22.9448 5.99919L15.2419 0.369141L15.2419 3.97786H15.2382H15.2345H15.2307H15.2268H15.2229H15.219H15.215H15.211H15.2069H15.2027H15.1985H15.1943H15.19H15.1857H15.1813H15.1768H15.1724H15.1678H15.1632H15.1586H15.1539H15.1492H15.1444H15.1396H15.1347H15.1298H15.1248H15.1198H15.1148H15.1097H15.1045H15.0993H15.094H15.0887H15.0834H15.078H15.0726H15.0671H15.0616H15.056H15.0504H15.0447H15.039H15.0332H15.0274H15.0215H15.0156H15.0097H15.0037H14.9977H14.9916H14.9855H14.9793H14.9731H14.9668H14.9605H14.9541H14.9477H14.9413H14.9348H14.9283H14.9217H14.9151H14.9084H14.9017H14.895H14.8882H14.8814H14.8745H14.8676H14.8606H14.8536H14.8465H14.8394H14.8323H14.8251H14.8179H14.8106H14.8033H14.796H14.7886H14.7812H14.7737H14.7662H14.7586H14.751H14.7434H14.7357H14.7279H14.7202H14.7124H14.7045H14.6966H14.6887H14.6807H14.6727H14.6647H14.6566H14.6484H14.6403H14.6321H14.6238H14.6155H14.6072H14.5988H14.5904H14.5819H14.5735H14.5649H14.5564H14.5477H14.5391H14.5304H14.5217H14.5129H14.5041H14.4953H14.4864H14.4775H14.4685H14.4595H14.4505H14.4414H14.4323H14.4232H14.414H14.4048H14.3955H14.3862H14.3769H14.3675H14.3581H14.3487H14.3392H14.3297H14.3202H14.3106H14.3009H14.2913H14.2816H14.2719H14.2621H14.2523H14.2424H14.2326H14.2227H14.2127H14.2027H14.1927H14.1827H14.1726H14.1625H14.1523H14.1421H14.1319H14.1216H14.1113H14.101H14.0907H14.0803H14.0698H14.0594H14.0489H14.0383H14.0278H14.0172H14.0066H13.9959H13.9852H13.9745H13.9637H13.9529H13.9421H13.9312H13.9203H13.9094H13.8984H13.8875H13.8764H13.8654H13.8543H13.8432H13.832H13.8209H13.8096H13.7984H13.7871H13.7758H13.7645H13.7531H13.7417H13.7303H13.7188H13.7074H13.6958H13.6843H13.6727H13.6611H13.6495H13.6378H13.6261H13.6144H13.6026H13.5908H13.579H13.5672H13.5553H13.5434H13.5314H13.5195H13.5075H13.4955H13.4834H13.4713H13.4592H13.4471H13.4349H13.4228H13.4105H13.3983H13.386H13.3737H13.3614H13.349H13.3367H13.3242H13.3118H13.2994H13.2869H13.2743H13.2618H13.2492H13.2366H13.224H13.2114H13.1987H13.186H13.1733H13.1605H13.1477H13.1349H13.1221H13.1092H13.0964H13.0835H13.0705H13.0576H13.0446H13.0316H13.0186H13.0055H12.9924H12.9793H12.9662H12.953H12.9399H12.9267H12.9134H12.9002H12.8869H12.8736H12.8603H12.847H12.8336H12.8202H12.8068H12.7934H12.7799H12.7664H12.7529H12.7394H12.7259H12.7123H12.6987H12.6851H12.6715H12.6578H12.6441H12.6304H12.6167H12.603H12.5892H12.5754H12.5616H12.5478H12.5339H12.5201H12.5062H12.4923H12.4783H12.4644H12.4504H12.4364H12.4224H12.4084H12.3943H12.3802H12.3662H12.352H12.3379H12.3238H12.3096H12.2954H12.2812H12.267H12.2527H12.2385H12.2242H12.2099H12.1956H12.1812H12.1669H12.1525H12.1381H12.1237H12.1093H12.0948H12.0803H12.0659H12.0514H12.0368H12.0223H12.0078H11.9932H11.9786H11.964H11.9494H11.9347H11.9201H11.9054H11.8907H11.876H11.8613H11.8466H11.8318H11.8171H11.8023H11.7875H11.7727H11.7579H11.743H11.7282H11.7133H11.6984H11.6835H11.6686H11.6537H11.6387H11.6238H11.6088H11.5938H11.5788H11.5638H11.5488H11.5337H11.5187H11.5036H11.4885H11.4734H11.4583H11.4432H11.428H11.4129H11.3977H11.3825H11.3673H11.3521H11.3369H11.3217H11.3065H11.2912H11.2759H11.2607H11.2454H11.2301H11.2148H11.1995H11.1841H11.1688H11.1534H11.1381H11.1227H11.1073H11.0919H11.0765H11.0611H11.0456H11.0302H11.0147H10.9993H10.9838H10.9683H10.9528H10.9373H10.9218H10.9063H10.8908H10.8752H10.8597H10.8441H10.8286H10.813H10.7974H10.7818H10.7662H10.7506H10.735H10.7193H10.7037H10.6881H10.6724H10.6567H10.6411H10.6254H10.6097H10.594H10.5783H10.5626H10.5469H10.5312H10.5155H10.4997H10.484H10.4682H10.4525H10.4367H10.421H10.4052H10.3894H10.3736H10.3578H10.342H10.3262H10.3104H10.2946H10.2788H10.263H10.2471H10.2313H10.2155H10.1996H10.1838H10.1679H10.1521H10.1362H10.1203H10.1045H10.0886H10.0727H10.0568H10.0409H10.0251H10.0092H9.99326H9.97736H9.96145H9.94554H9.92963H9.91371H9.8978H9.88188H9.86595H9.85003H9.8341H9.81817H9.80223H9.7863H9.77036H9.75442H9.73848H9.72254H9.70659H9.69064H9.6747H9.65875H9.6428H9.62684H9.61089H9.59494H9.57898H9.56303H9.54707H9.53111H9.51516H9.4992H9.48324H9.46728H9.45132H9.43537H9.41941H9.40345H9.38749H9.37154H9.35558H9.33962H9.32367H9.30771H9.29176H9.27581H9.25986H9.24391H9.22796H9.21202H9.19607H9.18013H9.16419H9.14825H9.13231H9.11637H9.10044H9.08451H9.06858L8.96619 3.97785C8.23163 3.97767 7.4976 3.97749 6.88836 4.05941C6.19422 4.15273 5.37601 4.3836 4.69368 5.06592C4.01135 5.74826 3.78049 6.56649 3.68716 7.26062C3.60525 7.86988 3.60543 8.60392 3.60561 9.33851L3.60562 9.4409V30.2551H7.53901V9.4409C7.53901 8.69612 7.54201 8.25079 7.56859 7.94083C7.87853 7.91425 8.32384 7.91125 9.06858 7.91125H9.08451H9.10044H9.11637H9.13231H9.14825H9.16419H9.18013H9.19607H9.21202H9.22796H9.24391H9.25986H9.27581H9.29176H9.30771H9.32367H9.33962H9.35558H9.37154H9.38749H9.40345H9.41941H9.43537H9.45132H9.46728H9.48324H9.4992H9.51516H9.53111H9.54707H9.56303H9.57898H9.59494H9.61089H9.62684H9.6428H9.65875H9.6747H9.69064H9.70659H9.72254H9.73848H9.75442H9.77036H9.7863H9.80223H9.81817H9.8341H9.85003H9.86595H9.88188H9.8978H9.91371H9.92963H9.94554H9.96145H9.97736H9.99326H10.0092H10.0251H10.0409H10.0568H10.0727H10.0886H10.1045H10.1203H10.1362H10.1521H10.1679H10.1838H10.1996H10.2155H10.2313H10.2471H10.263H10.2788H10.2946H10.3104H10.3262H10.342H10.3578H10.3736H10.3894H10.4052H10.421H10.4367H10.4525H10.4682H10.484H10.4997H10.5155H10.5312H10.5469H10.5626H10.5783H10.594H10.6097H10.6254H10.6411H10.6567H10.6724H10.6881H10.7037H10.7193H10.735H10.7506H10.7662H10.7818H10.7974H10.813H10.8286H10.8441H10.8597H10.8752H10.8908H10.9063H10.9218H10.9373H10.9528H10.9683H10.9838H10.9993H11.0147H11.0302H11.0456H11.0611H11.0765H11.0919H11.1073H11.1227H11.1381H11.1534H11.1688H11.1841H11.1995H11.2148H11.2301H11.2454H11.2607H11.2759H11.2912H11.3065H11.3217H11.3369H11.3521H11.3673H11.3825H11.3977H11.4129H11.428H11.4432H11.4583H11.4734H11.4885H11.5036H11.5187H11.5337H11.5488H11.5638H11.5788H11.5938H11.6088H11.6238H11.6387H11.6537H11.6686H11.6835H11.6984H11.7133H11.7282H11.743H11.7579H11.7727H11.7875H11.8023H11.8171H11.8318H11.8466H11.8613H11.876H11.8907H11.9054H11.9201H11.9347H11.9494H11.964H11.9786H11.9932H12.0078H12.0223H12.0368H12.0514H12.0659H12.0803H12.0948H12.1093H12.1237H12.1381H12.1525H12.1669H12.1812H12.1956H12.2099H12.2242H12.2385H12.2527H12.267H12.2812H12.2954H12.3096H12.3238H12.3379H12.352H12.3662H12.3802H12.3943H12.4084H12.4224H12.4364H12.4504H12.4644H12.4783H12.4923H12.5062H12.5201H12.5339H12.5478H12.5616H12.5754H12.5892H12.603H12.6167H12.6304H12.6441H12.6578H12.6715H12.6851H12.6987H12.7123H12.7259H12.7394H12.7529H12.7664H12.7799H12.7934H12.8068H12.8202H12.8336H12.847H12.8603H12.8736H12.8869H12.9002H12.9134H12.9267H12.9399H12.953H12.9662H12.9793H12.9924H13.0055H13.0186H13.0316H13.0446H13.0576H13.0705H13.0835H13.0964H13.1092H13.1221H13.1349H13.1477H13.1605H13.1733H13.186H13.1987H13.2114H13.224H13.2366H13.2492H13.2618H13.2743H13.2869H13.2994H13.3118H13.3242H13.3367H13.349H13.3614H13.3737H13.386H13.3983H13.4105H13.4228H13.4349H13.4471H13.4592H13.4713H13.4834H13.4955H13.5075H13.5195H13.5314H13.5434H13.5553H13.5672H13.579H13.5908H13.6026H13.6144H13.6261H13.6378H13.6495H13.6611H13.6727H13.6843H13.6958H13.7074H13.7188H13.7303H13.7417H13.7531H13.7645H13.7758H13.7871H13.7984H13.8096H13.8209H13.832H13.8432H13.8543H13.8654H13.8764H13.8875H13.8984H13.9094H13.9203H13.9312H13.9421H13.9529H13.9637H13.9745H13.9852H13.9959H14.0066H14.0172H14.0278H14.0383H14.0489H14.0594H14.0698H14.0803H14.0907H14.101H14.1113H14.1216H14.1319H14.1421H14.1523H14.1625H14.1726H14.1827H14.1927H14.2027H14.2127H14.2227H14.2326H14.2424H14.2523H14.2621H14.2719H14.2816H14.2913H14.3009H14.3106H14.3202H14.3297H14.3392H14.3487H14.3581H14.3675H14.3769H14.3862H14.3955H14.4048H14.414H14.4232H14.4323H14.4414H14.4505H14.4595H14.4685H14.4775H14.4864H14.4953H14.5041H14.5129H14.5217H14.5304H14.5391H14.5477H14.5564H14.5649H14.5735H14.5819H14.5904H14.5988H14.6072H14.6155H14.6238H14.6321H14.6403H14.6484H14.6566H14.6647H14.6727H14.6807H14.6887H14.6966H14.7045H14.7124H14.7202H14.7279H14.7357H14.7434H14.751H14.7586H14.7662H14.7737H14.7812H14.7886H14.796H14.8033H14.8106H14.8179H14.8251H14.8323H14.8394H14.8465H14.8536H14.8606H14.8676H14.8745H14.8814H14.8882H14.895H14.9017H14.9084H14.9151H14.9217H14.9283H14.9348H14.9413H14.9477H14.9541H14.9605H14.9668H14.9731H14.9793H14.9855H14.9916H14.9977H15.0037H15.0097H15.0156H15.0215H15.0274H15.0332H15.039H15.0447H15.0504H15.056H15.0616H15.0671H15.0726H15.078H15.0834H15.0887H15.094H15.0993H15.1045H15.1097H15.1148H15.1198H15.1248H15.1298H15.1347H15.1396H15.1444H15.1492H15.1539H15.1586H15.1632H15.1678H15.1724H15.1768H15.1813H15.1857H15.19H15.1943H15.1985H15.2027H15.2069H15.211H15.215H15.219H15.2229H15.2268H15.2307H15.2345H15.2382H15.2419L15.2419 11.6292Z" fill="#1E1E1E"/>
<path d="M67.1791 12.6914C70.5583 12.6914 73.1105 13.1641 74.8355 14.1093C76.5606 15.0545 77.4231 16.7205 77.4231 19.1072C77.4231 20.0524 77.2695 20.915 76.9623 21.6948C76.6551 22.4746 76.2061 23.1126 75.6153 23.6089C75.0482 24.1051 74.3511 24.4241 73.524 24.5659V24.7431C74.3747 24.9086 75.1427 25.2039 75.828 25.6293C76.5133 26.0546 77.0568 26.669 77.4585 27.4725C77.8602 28.2759 78.0611 29.3393 78.0611 30.6626C78.0611 32.1986 77.683 33.522 76.9268 34.6326C76.1943 35.7196 75.1309 36.5585 73.7367 37.1493C72.3425 37.7164 70.6883 38 68.7742 38H59.3101V12.6914H67.1791ZM67.7817 22.7227C69.3414 22.7227 70.4166 22.4746 71.0073 21.9783C71.6217 21.4821 71.9289 20.7614 71.9289 19.8161C71.9289 18.8473 71.5745 18.1502 70.8655 17.7248C70.1566 17.2994 69.0342 17.0868 67.4982 17.0868H64.6625V22.7227H67.7817ZM64.6625 26.9762V33.5692H68.1716C69.7785 33.5692 70.901 33.262 71.539 32.6476C72.177 32.0096 72.4961 31.1707 72.4961 30.131C72.4961 29.4929 72.3543 28.9376 72.0707 28.465C71.8108 27.9924 71.35 27.6261 70.6883 27.3662C70.0266 27.1062 69.1287 26.9762 67.9944 26.9762H64.6625ZM87.9816 18.6464V38H82.7001V18.6464H87.9816ZM85.3586 11.0609C86.1384 11.0609 86.8119 11.25 87.379 11.6281C87.9462 11.9825 88.2297 12.656 88.2297 13.6485C88.2297 14.6174 87.9462 15.2908 87.379 15.6689C86.8119 16.047 86.1384 16.2361 85.3586 16.2361C84.5551 16.2361 83.8698 16.047 83.3027 15.6689C82.7592 15.2908 82.4874 14.6174 82.4874 13.6485C82.4874 12.656 82.7592 11.9825 83.3027 11.6281C83.8698 11.25 84.5551 11.0609 85.3586 11.0609ZM101.653 34.1364C102.244 34.1364 102.811 34.0773 103.354 33.9591C103.898 33.841 104.441 33.6992 104.985 33.5338V37.4683C104.418 37.7046 103.709 37.9055 102.858 38.0709C102.031 38.2599 101.121 38.3545 100.129 38.3545C98.9706 38.3545 97.9309 38.1654 97.0093 37.7873C96.1113 37.4092 95.3906 36.7594 94.8471 35.8378C94.3272 34.8926 94.0673 33.5929 94.0673 31.9387V22.6164H91.5506V20.3833L94.4572 18.611L95.9814 14.5346H99.3487V18.6464H104.772V22.6164H99.3487V31.9387C99.3487 32.6713 99.5614 33.2266 99.9868 33.6047C100.412 33.9591 100.967 34.1364 101.653 34.1364ZM118.901 23.7861H128.932V36.9012C127.609 37.3502 126.226 37.7046 124.785 37.9646C123.367 38.2245 121.748 38.3545 119.929 38.3545C117.424 38.3545 115.285 37.8582 113.513 36.8657C111.764 35.8732 110.429 34.4081 109.507 32.4704C108.609 30.5327 108.16 28.146 108.16 25.3103C108.16 22.6636 108.668 20.3714 109.685 18.4337C110.724 16.496 112.225 14.9954 114.186 13.9321C116.148 12.8687 118.546 12.337 121.382 12.337C122.729 12.337 124.052 12.4788 125.352 12.7623C126.652 13.0459 127.833 13.424 128.896 13.8966L127.124 18.1856C126.344 17.7839 125.458 17.453 124.466 17.1931C123.473 16.9332 122.433 16.8032 121.346 16.8032C119.787 16.8032 118.428 17.1577 117.27 17.8666C116.136 18.5755 115.25 19.5798 114.612 20.8795C113.997 22.1556 113.69 23.6679 113.69 25.4166C113.69 27.0708 113.915 28.5359 114.364 29.8119C114.812 31.088 115.521 32.0923 116.49 32.8249C117.459 33.5338 118.723 33.8882 120.283 33.8882C121.039 33.8882 121.677 33.8528 122.197 33.7819C122.741 33.711 123.237 33.6283 123.686 33.5338V28.2523H118.901V23.7861ZM142.495 18.2919C144.291 18.2919 145.827 18.6346 147.103 19.3199C148.402 20.0052 149.407 20.9977 150.116 22.2974C150.825 23.597 151.179 25.1921 151.179 27.0826V29.6347H138.702C138.749 31.1234 139.186 32.2932 140.014 33.1439C140.864 33.9946 142.034 34.4199 143.523 34.4199C144.775 34.4199 145.909 34.3018 146.926 34.0655C147.942 33.8055 148.993 33.4156 150.08 32.8958V36.9721C149.135 37.4447 148.131 37.7873 147.067 38C146.028 38.2363 144.763 38.3545 143.275 38.3545C141.337 38.3545 139.624 38 138.135 37.2911C136.646 36.5585 135.476 35.4597 134.626 33.9946C133.775 32.5295 133.35 30.6863 133.35 28.465C133.35 26.1964 133.728 24.3178 134.484 22.829C135.264 21.3167 136.339 20.1824 137.71 19.4262C139.08 18.67 140.675 18.2919 142.495 18.2919ZM142.53 22.0492C141.514 22.0492 140.663 22.3801 139.978 23.0417C139.316 23.7034 138.926 24.7313 138.808 26.1255H146.217C146.217 25.3457 146.075 24.6486 145.791 24.0342C145.531 23.4198 145.13 22.9354 144.586 22.5809C144.043 22.2265 143.357 22.0492 142.53 22.0492ZM166.45 18.2919C168.529 18.2919 170.195 18.8591 171.448 19.9934C172.7 21.104 173.327 22.8999 173.327 25.3812V38H168.045V26.6927C168.045 25.2985 167.797 24.2587 167.301 23.5734C166.804 22.8645 166.013 22.51 164.926 22.51C163.319 22.51 162.22 23.0654 161.629 24.176C161.039 25.263 160.743 26.8345 160.743 28.8903V38H155.462V18.6464H159.503L160.211 21.1276H160.495C160.92 20.466 161.44 19.9343 162.055 19.5326C162.669 19.1072 163.354 18.8 164.111 18.611C164.867 18.3983 165.647 18.2919 166.45 18.2919ZM184.039 18.6464V38H178.758V18.6464H184.039ZM181.416 11.0609C182.196 11.0609 182.87 11.25 183.437 11.6281C184.004 11.9825 184.287 12.656 184.287 13.6485C184.287 14.6174 184.004 15.2908 183.437 15.6689C182.87 16.047 182.196 16.2361 181.416 16.2361C180.613 16.2361 179.928 16.047 179.36 15.6689C178.817 15.2908 178.545 14.6174 178.545 13.6485C178.545 12.656 178.817 11.9825 179.36 11.6281C179.928 11.25 180.613 11.0609 181.416 11.0609ZM207.316 18.6464V38H203.275L202.567 35.5188H202.283C201.881 36.1804 201.361 36.7239 200.723 37.1493C200.109 37.551 199.424 37.8464 198.667 38.0354C197.911 38.2481 197.131 38.3545 196.328 38.3545C194.957 38.3545 193.752 38.1063 192.713 37.6101C191.673 37.1138 190.869 36.3458 190.302 35.3061C189.735 34.2663 189.451 32.9194 189.451 31.2652V18.6464H194.733V29.9537C194.733 31.3243 194.981 32.3641 195.477 33.073C195.974 33.7819 196.765 34.1364 197.852 34.1364C198.939 34.1364 199.778 33.8882 200.369 33.392C200.983 32.8958 201.409 32.175 201.645 31.2298C201.905 30.2846 202.035 29.1266 202.035 27.7561V18.6464H207.316ZM226.359 32.2577C226.359 33.5574 226.052 34.6681 225.437 35.5897C224.823 36.4876 223.901 37.1729 222.673 37.6455C221.444 38.1182 219.92 38.3545 218.1 38.3545C216.753 38.3545 215.595 38.2599 214.626 38.0709C213.657 37.9055 212.689 37.6219 211.72 37.2202V32.8603C212.759 33.3329 213.882 33.7228 215.087 34.03C216.292 34.3372 217.356 34.4908 218.277 34.4908C219.317 34.4908 220.05 34.3372 220.475 34.03C220.924 33.7228 221.148 33.3211 221.148 32.8249C221.148 32.494 221.054 32.1986 220.865 31.9387C220.699 31.6788 220.321 31.3834 219.731 31.0526C219.14 30.7217 218.218 30.2964 216.966 29.7765C215.761 29.2566 214.768 28.7486 213.988 28.2523C213.208 27.7324 212.629 27.118 212.251 26.4091C211.873 25.6766 211.684 24.7668 211.684 23.6798C211.684 21.8838 212.381 20.5369 213.776 19.6389C215.17 18.7409 217.025 18.2919 219.341 18.2919C220.546 18.2919 221.692 18.4101 222.779 18.6464C223.866 18.8827 224.988 19.2726 226.146 19.8161L224.551 23.6089C223.606 23.2071 222.708 22.8763 221.857 22.6164C221.007 22.3328 220.144 22.191 219.27 22.191C218.49 22.191 217.899 22.2974 217.497 22.51C217.119 22.7227 216.93 23.0417 216.93 23.4671C216.93 23.7743 217.025 24.0578 217.214 24.3178C217.427 24.5541 217.816 24.814 218.384 25.0976C218.974 25.3812 219.837 25.7593 220.971 26.2319C222.082 26.6809 223.039 27.1535 223.842 27.6497C224.646 28.1223 225.26 28.7249 225.685 29.4575C226.134 30.1664 226.359 31.0998 226.359 32.2577ZM255.596 38L253.753 31.9742H244.537L242.694 38H236.916L245.849 12.5851H252.406L261.374 38H255.596ZM250.634 21.5884C250.516 21.1867 250.362 20.6786 250.173 20.0642C249.984 19.4498 249.795 18.8236 249.606 18.1856C249.417 17.5476 249.263 16.9922 249.145 16.5196C249.027 16.9922 248.861 17.583 248.649 18.2919C248.46 18.9772 248.271 19.6389 248.082 20.2769C247.916 20.8913 247.786 21.3285 247.692 21.5884L245.884 27.4725H252.477L250.634 21.5884ZM269.435 18.6464V38H264.154V18.6464H269.435ZM266.812 11.0609C267.592 11.0609 268.266 11.25 268.833 11.6281C269.4 11.9825 269.684 12.656 269.684 13.6485C269.684 14.6174 269.4 15.2908 268.833 15.6689C268.266 16.047 267.592 16.2361 266.812 16.2361C266.009 16.2361 265.324 16.047 264.757 15.6689C264.213 15.2908 263.941 14.6174 263.941 13.6485C263.941 12.656 264.213 11.9825 264.757 11.6281C265.324 11.25 266.009 11.0609 266.812 11.0609Z" fill="white"/>
</svg>
