<svg width="64" height="64" viewBox="0 0 64 64" fill="none" xmlns="http://www.w3.org/2000/svg">
<path d="M18.6667 37.3333C14.2484 37.3333 10.6667 40.9149 10.6667 45.3333C10.6667 49.7517 14.2484 53.3333 18.6667 53.3333C19.6017 53.3333 20.4993 53.1727 21.3333 52.8781" stroke="url(#paint0_linear_10_16)" stroke-width="5.33333" stroke-linecap="round" stroke-linejoin="round"/>
<path d="M11.3704 41.6122C7.79813 39.8885 5.33344 36.232 5.33344 32C5.33344 28.7688 6.77005 25.8733 9.03941 23.9172" stroke="url(#paint1_linear_10_16)" stroke-width="5.33333" stroke-linecap="round" stroke-linejoin="round"/>
<path d="M9.12141 23.7018C8.41307 22.6428 8 21.3696 8 19.9999C8 16.318 10.9848 13.3333 14.6667 13.3333C16.1678 13.3333 17.553 13.8294 18.6673 14.6666" stroke="url(#paint2_linear_10_16)" stroke-width="5.33333" stroke-linecap="round" stroke-linejoin="round"/>
<path d="M19.3005 14.8408C18.894 13.979 18.6667 13.016 18.6667 11.9999C18.6667 8.31803 21.6514 5.33325 25.3333 5.33325C29.0152 5.33325 32 8.31803 32 11.9999V53.3333" stroke="url(#paint3_linear_10_16)" stroke-width="5.33333" stroke-linecap="round" stroke-linejoin="round"/>
<path d="M21.3333 53.3333C21.3333 56.2789 23.7211 58.6666 26.6667 58.6666C29.6123 58.6666 32 56.2789 32 53.3333" stroke="url(#paint4_linear_10_16)" stroke-width="5.33333" stroke-linecap="round" stroke-linejoin="round"/>
<path d="M32 18.6667C32 23.085 35.5816 26.6667 40 26.6667" stroke="url(#paint5_linear_10_16)" stroke-width="5.33333" stroke-linecap="round" stroke-linejoin="round"/>
<path d="M54.9605 23.9172C57.2299 25.8733 58.6667 28.7688 58.6667 32C58.6667 33.8749 58.1829 35.6368 57.3333 37.1677" stroke="url(#paint6_linear_10_16)" stroke-width="5.33333" stroke-linecap="round" stroke-linejoin="round"/>
<path d="M54.8787 23.7018C55.5869 22.6428 56 21.3696 56 19.9999C56 16.318 53.0152 13.3333 49.3333 13.3333C47.8323 13.3333 46.4469 13.8294 45.3328 14.6666" stroke="url(#paint7_linear_10_16)" stroke-width="5.33333" stroke-linecap="round" stroke-linejoin="round"/>
<path d="M32 11.9999C32 8.31803 34.9848 5.33325 38.6667 5.33325C42.3485 5.33325 45.3333 8.31803 45.3333 11.9999C45.3333 13.016 45.1061 13.979 44.6995 14.8408" stroke="url(#paint8_linear_10_16)" stroke-width="5.33333" stroke-linecap="round" stroke-linejoin="round"/>
<path d="M37.3333 58.6666C34.3877 58.6666 32 56.2789 32 53.3333" stroke="url(#paint9_linear_10_16)" stroke-width="5.33333" stroke-linecap="round" stroke-linejoin="round"/>
<path d="M50.9867 56L50.0907 53.312H44.1387L43.2427 56H40.064L45.2907 41.0667H48.9387L54.1867 56H50.9867ZM45.0773 50.56H49.1733L47.1253 44.4587L45.0773 50.56ZM55.6367 41.0667H58.5807V56H55.6367V41.0667Z" fill="url(#paint10_linear_10_16)"/>
<defs>
<linearGradient id="paint0_linear_10_16" x1="10.6667" y1="45.3333" x2="21.3333" y2="45.3333" gradientUnits="userSpaceOnUse">
<stop stop-color="#FFB800"/>
<stop offset="1" stop-color="#FF8A00"/>
</linearGradient>
<linearGradient id="paint1_linear_10_16" x1="5.33344" y1="32.7647" x2="11.3704" y2="32.7647" gradientUnits="userSpaceOnUse">
<stop stop-color="#FFB800"/>
<stop offset="1" stop-color="#FF8A00"/>
</linearGradient>
<linearGradient id="paint2_linear_10_16" x1="8" y1="18.5175" x2="18.6673" y2="18.5175" gradientUnits="userSpaceOnUse">
<stop stop-color="#FFB800"/>
<stop offset="1" stop-color="#FF8A00"/>
</linearGradient>
<linearGradient id="paint3_linear_10_16" x1="18.6667" y1="29.3333" x2="32" y2="29.3333" gradientUnits="userSpaceOnUse">
<stop stop-color="#FFB800"/>
<stop offset="1" stop-color="#FF8A00"/>
</linearGradient>
<linearGradient id="paint4_linear_10_16" x1="21.3333" y1="55.9999" x2="32" y2="55.9999" gradientUnits="userSpaceOnUse">
<stop stop-color="#FFB800"/>
<stop offset="1" stop-color="#FF8A00"/>
</linearGradient>
<linearGradient id="paint5_linear_10_16" x1="32" y1="22.6667" x2="40" y2="22.6667" gradientUnits="userSpaceOnUse">
<stop stop-color="#FFB800"/>
<stop offset="1" stop-color="#FF8A00"/>
</linearGradient>
<linearGradient id="paint6_linear_10_16" x1="54.9605" y1="30.5425" x2="58.6667" y2="30.5425" gradientUnits="userSpaceOnUse">
<stop stop-color="#FFB800"/>
<stop offset="1" stop-color="#FF8A00"/>
</linearGradient>
<linearGradient id="paint7_linear_10_16" x1="45.3328" y1="18.5175" x2="56" y2="18.5175" gradientUnits="userSpaceOnUse">
<stop stop-color="#FFB800"/>
<stop offset="1" stop-color="#FF8A00"/>
</linearGradient>
<linearGradient id="paint8_linear_10_16" x1="32" y1="10.087" x2="45.3333" y2="10.087" gradientUnits="userSpaceOnUse">
<stop stop-color="#FFB800"/>
<stop offset="1" stop-color="#FF8A00"/>
</linearGradient>
<linearGradient id="paint9_linear_10_16" x1="32" y1="55.9999" x2="37.3333" y2="55.9999" gradientUnits="userSpaceOnUse">
<stop stop-color="#FFB800"/>
<stop offset="1" stop-color="#FF8A00"/>
</linearGradient>
<linearGradient id="paint10_linear_10_16" x1="40" y1="49" x2="60" y2="49" gradientUnits="userSpaceOnUse">
<stop stop-color="#FFB800"/>
<stop offset="1" stop-color="#FF8A00"/>
</linearGradient>
</defs>
</svg>
